<?xml version="1.0" encoding="utf-8"?>
<!-- Generator: Adobe Illustrator 25.2.3, SVG Export Plug-In . SVG Version: 6.00 Build 0)  -->
<svg version="1.1" id="Layer_1" xmlns="http://www.w3.org/2000/svg" xmlns:xlink="http://www.w3.org/1999/xlink" x="0px" y="0px"
	 viewBox="0 0 50.7 50.7" style="enable-background:new 0 0 50.7 50.7;" xml:space="preserve">
<style type="text/css">
	.st0{fill:#1D1D20;}
</style>
<g>
	<g>
		<path class="st0" d="M25.4,41.3l-7.2-5.6c-1.4-1.4-1.3-1.6-1.3-1.6c-0.1-0.9-0.2-1.9-0.2-2.8l-1.3-14.1c0-0.1,0-0.2,0-0.3
			c-0.1-0.7,0.2-1.1,0.4-1.4l0.5-0.5l0.3-0.2L33.9,15c0.3,0,0.9,0,1.3,0.5c0.5,0.5,0.4,1.1,0.4,1.4l-1.3,14.7
			c-0.1,0.8-0.1,1.7-0.2,2.5c0,0,0,0.6-1.3,1.6L25.4,41.3z M25.5,37.3l5.6-4.3c0.1-0.7,0.2-1.2,0.2-1.8L32.4,18h-14l1.1,12.9
			c0,0.7,0.1,1.4,0.2,2.1L25.5,37.3z M31,33.9L31,33.9L31,33.9z"/>
	</g>
</g>
</svg>
