<?xml version="1.0" encoding="utf-8"?>
<!-- Generator: Adobe Illustrator 25.2.3, SVG Export Plug-In . SVG Version: 6.00 Build 0)  -->
<svg version="1.1" id="Layer_1" xmlns="http://www.w3.org/2000/svg" xmlns:xlink="http://www.w3.org/1999/xlink" x="0px" y="0px"
	 viewBox="0 0 50.7 50.7" style="enable-background:new 0 0 50.7 50.7;" xml:space="preserve">
<style type="text/css">
	.st0{fill:#1D1D20;}
</style>
<g>
	<path class="st0" d="M22.6,15.9c-0.8,0-1.6,0-2.5,0c-0.6,0-0.8,0.2-0.7,0.8c0,2.6,0,5.2,0,7.9c0,1.6,0,3.3,0,4.9c0,1.4-0.7,2-2.1,2
		c-1,0-1.6-0.6-2.1-1.4c-0.3-0.5-0.5-0.5-1-0.2c-0.6,0.4-1.3,0.8-2,1.2c-0.4,0.2-0.5,0.4-0.2,0.9c1.3,2.4,4.2,3.5,7.4,2.8
		c2.4-0.6,3.8-2.5,3.8-5.4c0.1-2,0.1-4,0.1-6.1c0-2.2,0-4.5,0-6.7C23.3,16.1,23.2,15.9,22.6,15.9z"/>
	<path class="st0" d="M36.6,25.1c-0.8-0.6-1.8-1-2.7-1.5c-0.8-0.4-1.6-0.7-2.4-1.1c-0.5-0.3-1-0.7-1-1.4c-0.1-0.7,0.1-1.3,0.8-1.7
		c0.8-0.4,1.9-0.3,2.6,0.3c0.4,0.3,0.5,1,1,0.9c0.5-0.1,0.9-0.5,1.3-0.8c0.3-0.2,0.6-0.4,0.9-0.6c0.6-0.3,0.5-0.6,0.2-1.1
		c-1.1-1.5-2.5-2.2-4.3-2.4c-2.8-0.3-5.3,1.1-6.1,3.4c-0.9,2.6,0.2,5.2,2.7,6.7c0.7,0.4,1.5,0.7,2.2,1.1c0.7,0.3,1.4,0.7,2.1,1
		c0.8,0.4,1.2,1.1,1,2s-0.9,1.3-1.7,1.5c-1.8,0.3-3.2-0.2-4.3-1.7c-0.3-0.4-0.5-0.5-1-0.2c-0.6,0.4-1.3,0.8-2,1.1
		c-0.5,0.3-0.5,0.5-0.2,1c1.6,2.5,3.9,3.4,6.7,3.4c0.7,0,1.3,0,2-0.2c2.2-0.5,3.8-1.6,4.3-3.9S38.6,26.6,36.6,25.1z"/>
</g>
</svg>
