<?xml version="1.0" encoding="utf-8"?>
<!-- Generator: Adobe Illustrator 25.2.3, SVG Export Plug-In . SVG Version: 6.00 Build 0)  -->
<svg version="1.1" id="Layer_1" xmlns="http://www.w3.org/2000/svg" xmlns:xlink="http://www.w3.org/1999/xlink" x="0px" y="0px"
	 viewBox="0 0 50.7 50.7" style="enable-background:new 0 0 50.7 50.7;" xml:space="preserve">
<style type="text/css">
	.st0{fill:#606066;}
	.st1{fill:#1D1D20;}
</style>
<g>
	<g>
		<path class="st0" d="M33,15.9c1.6,0,3.3,0,4.9,0c0,0,0.1,0,0.1,0.1c0,0,0,0,0,0c0,0,0,0,0,0c0,0-0.1,0.1-0.1,0.1
			c-1.5,2.6-3,5.1-4.4,7.7c-2.6,4.5-5.3,9.1-7.9,13.6c0,0-0.1,0.1,0,0.1c0,0,0,0,0,0c0,0,0-0.1,0-0.1c-1.9-3.3-3.8-6.5-5.7-9.8
			c-0.5-0.9-1-1.8-1.6-2.7c-1.3-2.2-2.5-4.4-3.8-6.5c-0.4-0.8-0.9-1.5-1.3-2.3c0,0,0-0.1-0.1-0.1c0-0.1,0-0.1,0.1-0.1
			c1.4,0,2.9,0,4.3,0c0.2,0,0.4,0,0.6,0c0,0,0,0.1,0.1,0.1c2.4,4.2,4.9,8.5,7.3,12.7c0,0,0,0.1,0,0.1c0,0,0,0,0.1,0c0,0,0,0,0-0.1
			c2.2-3.8,4.4-7.6,6.6-11.4C32.4,16.9,32.7,16.4,33,15.9z"/>
		<path class="st1" d="M33,15.9c-0.3,0.5-0.6,1-0.8,1.5c-2.2,3.8-4.4,7.6-6.6,11.4c0,0,0,0,0,0.1c0,0,0,0-0.1,0c0,0,0-0.1,0-0.1
			c-2.4-4.2-4.9-8.5-7.3-12.7c0,0,0-0.1-0.1-0.1c1.5,0,3.1,0,4.6,0c0,0.1,0,0.1,0.1,0.1c0.7,1.2,1.4,2.4,2.1,3.6
			c0.2,0.4,0.5,0.8,0.7,1.2c0,0.1,0.1,0.1,0.1,0c0,0,0,0,0,0c0.9-1.5,1.7-3,2.6-4.5c0.1-0.1,0.2-0.3,0.2-0.4
			C29.9,15.9,31.4,15.9,33,15.9z"/>
	</g>
</g>
</svg>
