<?xml version="1.0" encoding="utf-8"?>
<!-- Generator: Adobe Illustrator 25.2.3, SVG Export Plug-In . SVG Version: 6.00 Build 0)  -->
<svg version="1.1" id="Layer_1" xmlns="http://www.w3.org/2000/svg" xmlns:xlink="http://www.w3.org/1999/xlink" x="0px" y="0px"
	 viewBox="0 0 50.7 50.7" style="enable-background:new 0 0 50.7 50.7;" xml:space="preserve">
<style type="text/css">
	.st0{fill:#FFFFFF;}
</style>
<g>
	<g>
		<path class="st0" d="M19,44.1c0,1.6,0,3.1,0,4.7c0,0.9-0.9,1.4-1.9,1c-2.7-0.9-5.1-2.1-7.4-4c-5.3-4.1-8.5-9.5-9.5-16.1
			C-1.5,17,6.4,5.2,18.6,1.8c13.1-3.6,26.8,3.7,30.9,16.7s-3,26.9-15.8,31.3c-1.3,0.4-2-0.1-2-1.4c0-1.9,0-3.7,0-5.7s-0.1-4-1.7-5.6
			c1-0.1,1.9-0.3,2.7-0.4c2.7-0.6,5.1-1.7,6.8-4.1c1.1-1.7,1.7-3.7,1.9-5.7c0.1-1.3,0.1-2.6,0-3.7c-0.1-1.7-1-3.3-2.1-4.6
			C39,18.3,39,18,39.1,17.7c0.6-2,0.4-4-0.3-5.8c-0.1-0.1-0.4-0.4-0.6-0.4c-1.1,0-2.3,0.4-3.4,0.9c-0.9,0.4-1.7,1-2.7,1.4
			c-0.3,0.1-0.6,0.1-0.7,0.1c-4-1-8-1-12,0c-0.3,0-0.6,0-0.9-0.1c-1.7-1-3.4-2-5.3-2.3c-0.1,0-0.3,0-0.4,0c-0.6-0.1-0.9,0.1-1,0.7
			c-0.6,1.9-0.7,3.7-0.1,5.7c0,0.1,0,0.4-0.1,0.6c-2.3,2.6-2.7,5.7-2.3,9c0.3,2.1,0.9,4.1,2.3,5.7c1.6,2.1,3.8,3.1,6.4,3.7
			c0.9,0.1,1.7,0.3,2.7,0.6c-0.9,0.9-1.3,2-1.6,3.1c0,0.1-0.3,0.3-0.4,0.3c-2.8,1.1-5.4,0.4-7-2.1c-0.9-1.3-1.9-2.3-3.4-2.6
			c-0.4-0.1-0.7-0.1-1.1,0c-0.6,0.1-0.7,0.4-0.3,0.9c0.1,0.1,0.3,0.3,0.6,0.4c1.4,0.9,2.1,2,2.8,3.4c1,2.3,2.8,3.4,5.1,3.6
			C16.8,44.2,17.9,44.1,19,44.1z"/>
	</g>
</g>
</svg>
