<?xml version="1.0" encoding="utf-8"?>
<!-- Generator: Adobe Illustrator 25.2.3, SVG Export Plug-In . SVG Version: 6.00 Build 0)  -->
<svg version="1.1" id="Layer_1" xmlns="http://www.w3.org/2000/svg" xmlns:xlink="http://www.w3.org/1999/xlink" x="0px" y="0px"
	 viewBox="0 0 50.7 50.7" style="enable-background:new 0 0 50.7 50.7;" xml:space="preserve">
<style type="text/css">
	.st0{fill:#FFFFFF;}
</style>
<g>
	<g>
		<path class="st0" d="M3.3,25.4c0-6.2,0-12.3,0-18.5c0-2.3,1.3-3.7,3.5-3.7c12.3,0,24.8,0,37.2,0c2.1,0,3.5,1.4,3.5,3.5
			c0,12.3,0,24.8,0,37.2c0,2.3-1.4,3.5-3.5,3.5c-12.5,0-24.8,0-37.3,0c-2.1,0-3.5-1.4-3.5-3.5C3.3,37.9,3.3,31.6,3.3,25.4z M27,22.6
			h-0.1c0-0.8,0-1.4,0-2.1c0-0.5-0.1-0.6-0.6-0.6c-1.8,0-3.4,0-5.2,0c-0.5,0-0.6,0.1-0.6,0.6c0,6.7,0,13.2,0,19.9
			c0,0.5,0.1,0.6,0.8,0.6c1.6,0,3.4,0,5,0c0.6,0,0.9-0.1,0.9-0.8c0-3.5,0-7.1,0-10.6c0-0.9,0.1-1.9,0.6-2.6c0.6-1.4,2-2,3.9-1.8
			c1.4,0.1,2.3,1,2.6,2.5c0.3,0.9,0.3,1.8,0.3,2.6c0,3.3,0,6.7,0,9.9c0,0.6,0.1,0.8,0.8,0.8c1.8,0,3.4,0,5.2,0
			c0.6,0,0.8-0.3,0.8-0.8c0-3.8,0-7.4,0-11.2c0-1.4-0.1-2.8-0.4-4.2c-0.6-2.6-2-4.5-4.8-5.3c-1.3-0.3-2.5-0.4-3.9-0.3
			c-1.9,0.3-3.4,1.1-4.5,2.5C27.4,22.3,27.1,22.5,27,22.6z M9.9,30.6c0,3.3,0,6.5,0,9.8c0,0.5,0.1,0.8,0.6,0.8c1.8,0,3.5,0,5.3,0
			c0.5,0,0.6-0.1,0.6-0.6c0-6.7,0-13.2,0-19.9c0-0.5-0.1-0.6-0.6-0.6c-1.8,0-3.5,0-5.3,0c-0.6,0-0.8,0.3-0.8,0.8
			C9.9,23.9,9.9,27.2,9.9,30.6z M9.4,13.2c0,2.1,1.6,3.8,3.8,3.8c2,0,3.8-1.6,3.8-3.8s-1.6-3.8-3.8-3.8C11.1,9.4,9.4,11.2,9.4,13.2z
			"/>
	</g>
</g>
</svg>
