<?xml version="1.0" encoding="utf-8"?>
<!-- Generator: Adobe Illustrator 25.2.3, SVG Export Plug-In . SVG Version: 6.00 Build 0)  -->
<svg version="1.1" id="Layer_1" xmlns="http://www.w3.org/2000/svg" xmlns:xlink="http://www.w3.org/1999/xlink" x="0px" y="0px"
	 viewBox="0 0 50.7 50.7" style="enable-background:new 0 0 50.7 50.7;" xml:space="preserve">
<style type="text/css">
	.st0{fill:#1D1D20;}
</style>
<path class="st0" d="M24.6,17.2c0.4-0.7-1.6-0.9-0.3-0.2C24.5,17,24.5,17.2,24.6,17.2z M14,11.4c-0.8-1.1,1.6,0.2,0.7-1
	C14,9.9,13.3,11.1,14,11.4z M15.7,12.8c1.2-0.2-0.3-0.5-0.2,0L15.7,12.8z M14.8,12.5C15,12.2,14.3,12.7,14.8,12.5z M16.7,14.6
	c0.7,0-0.3-1,0.6-0.5c-0.1-0.5-1-0.6-1.4-0.7C15.5,13.8,16.3,14.6,16.7,14.6L16.7,14.6z M14.4,14.5c0.6-0.5,2.2,0.3,1.2-0.5
	C15.5,14,13.4,14.6,14.4,14.5z M13.7,15.8c1.1-0.4,2.6-0.8,3.1,0.2c-0.5-0.6-0.2-1.3,0.3-0.3c0.7,0.9,1.1-0.4,0.6-0.7
	c0.5,0.6,1.1,1,0.4,0c0.8-1-1.7,0.1-2.2,0.1C15.6,15.1,13,15.7,13.7,15.8L13.7,15.8z M15.8,19.2C16,18.8,15.4,19.1,15.8,19.2z
	 M15.1,20.9C15.1,20.5,14.9,21.1,15.1,20.9z M14.6,20.6c0.6,0,1-0.7-0.1-0.6c-1.7-0.2,1.5,0.6-0.2,0.4C14,20.5,14.6,20.7,14.6,20.6
	L14.6,20.6z M40.8,37.3c0.8,0,2.3-0.2,0.6-0.2C41.2,37.1,39.9,37.1,40.8,37.3L40.8,37.3z M37.2,35.1C37.2,34.6,36.8,35.2,37.2,35.1z
	 M40,37.1C40,36.6,39.6,37.3,40,37.1z M11.9,19.5C12.4,19.1,11.3,19.3,11.9,19.5z M14,21C14.3,20.6,13.3,20.8,14,21z M13.3,20.8
	C14.2,20.2,12.3,20.3,13.3,20.8z M20.3,16.3c0.3-0.8,1.2-0.3,0.1-0.2C20.5,16.3,20.4,16.6,20.3,16.3z M19.4,16.3
	C19.4,14.7,21,16.9,19.4,16.3z M16.4,16.8c0.5-0.6,2.9-0.4,1.1-0.1C17,16.4,16.7,17,16.4,16.8z M16.2,17
	C16.5,16.6,16.2,17.3,16.2,17z M15.3,17.3c0-0.6,1.4,0.3,0.2,0.2L15.3,17.3z M14.7,17.3C15.2,16.9,15,17.5,14.7,17.3z M14.7,17.9
	c0.3-1.2,1.8,1,0.5,0.2C15.1,17.9,14.9,17.9,14.7,17.9C14.7,17.9,14.7,17.9,14.7,17.9L14.7,17.9L14.7,17.9z M11.2,19.6
	c-0.1-0.7-0.1-2,1.1-1.6c-1.6,0.3,1.1,2,0.8,0.7c0.7,0,1.3-0.4,1,0.3c1.3-0.1,2.3-1.3,3.6-1.2c1.2-0.1,2.3-0.3,3.3-0.7l-0.1,0
	c0.9-0.1,1.8-1,1.3-1.6c-0.2,0-0.5,0-0.8,0c-1.1,0-2.1,0.1-3.2,0.4l0.1,0c-1.5,0.3-2.9,0.9-4.4,1.2c-1.5,0.2,0.3,0.5-0.1,0.6
	c-0.8,0.3,0.9,0.4-0.1,0.7c-0.6-0.1-1.3-0.3-1-1C11.3,17.6,10.1,18.2,11.2,19.6L11.2,19.6L11.2,19.6z M13.6,21.2
	C13.7,20.7,13.1,21.3,13.6,21.2z M38.4,37.2C38.6,36.7,38,37.3,38.4,37.2z M35.7,35.8C36.2,35.4,35.2,35.7,35.7,35.8z M13.4,22.1
	c0.7-0.3-1.3-0.6-0.1-0.1L13.4,22.1z M11.8,21.1C11.7,20.6,11.5,21.1,11.8,21.1z M11.5,21.3C11.5,20.9,11.3,21.4,11.5,21.3z
	 M13.5,22.6C13.4,21.8,12.4,22.5,13.5,22.6z M17.4,25.5C17.6,25.4,17,25.4,17.4,25.5z M13.9,23.2C13.7,23.1,13.8,23.4,13.9,23.2z
	 M13.3,23C13.3,22.6,12.4,22.7,13.3,23z M12.3,22.7C12.1,21.7,11.6,22.6,12.3,22.7z M16.5,25.6C16.5,25,16,25.6,16.5,25.6z
	 M35.2,37.3c0.7-0.1,2.3,0.4,2.5-0.2c-0.8,0-2.9-0.6-3,0.1l0.2,0L35.2,37.3z M16,25.5C16,25.3,15.8,25.5,16,25.5z M14.4,24.7
	C14.9,24.5,13.9,24.6,14.4,24.7z M27,33.2C27,32.7,26.5,33.3,27,33.2z M14.7,25.5C15.6,25.1,13.8,25.2,14.7,25.5z M31.1,36
	C31.4,35.8,30.8,36,31.1,36z M28.1,34.1C28,33.9,27.8,34.1,28.1,34.1z M27.7,33.8C27.5,33.4,27.1,33.8,27.7,33.8z M19.9,28.9
	C19.9,28.4,18.9,28.7,19.9,28.9z M19,28.7C18.7,28.4,19,28.7,19,28.7z M13.1,25.1c0.1-0.5-1.2-2.9-0.6-1.2
	C12.7,24.2,12.7,24.9,13.1,25.1z M16.3,27.6c0.7,0.2,2.8,1.7,1.6,0.1c-0.6-0.2-0.3-1.8-0.9-1.5c0.4,0.7,0.4,1-0.6,0.6
	c-1.2-0.6-0.6,0.3-0.4,0.5C15.7,27.4,16.4,27.6,16.3,27.6L16.3,27.6z M34,39C34.5,38.6,33.4,38.9,34,39z M32.1,37.7
	C32.9,37.1,31.3,38,32.1,37.7z M32.5,37.9c1-0.7-0.6-0.1-0.2,0.1L32.5,37.9z M21.7,31.5C21.5,31.1,21.4,31.6,21.7,31.5z M21.1,31.1
	C21.1,30.8,20.7,31.2,21.1,31.1z M31.3,37.6c0.8-0.5-0.2-0.4-0.1,0L31.3,37.6z M15.9,27.8C16.1,27.5,15.3,27.8,15.9,27.8z
	 M31.5,37.9C32.3,37.2,31,37.8,31.5,37.9z M30.4,37.4C31.9,36.4,29.7,37,30.4,37.4z M13.9,27.1c-0.7-1-0.4-1.5-1.1-2.3
	c-0.1-0.6-1.2-2.1-0.5-0.6C12.8,25.2,13,26.6,13.9,27.1L13.9,27.1z M30.6,37.7C31.5,36.8,29.8,37.8,30.6,37.7z M30.6,38
	C30.6,37.8,30.3,38.1,30.6,38z M29,36.9C29.8,36.3,28.3,37.2,29,36.9z M22.1,32.6c0.5,0.4,2.3,0.3,0.6,0.1
	C22.4,32.3,21.1,32.4,22.1,32.6z M17,29.6C16.7,29,15.8,29.1,17,29.6z M16.1,29C16,28.4,15.2,28.4,16.1,29z M29.3,37.3
	c0.4-0.4,0,0.7,0.7-0.1c0-0.6,0-0.9-0.8-0.2C29,37.1,28.9,37.6,29.3,37.3z M28.5,36.9C28.5,36.6,28.3,37.3,28.5,36.9z M20.4,32
	C22.3,32.6,19.5,31.3,20.4,32z M18.8,31.1c0.5,0.3,1.7,1,0.7,0.1c0.4-0.4-0.7-0.7-0.3-0.9c-0.9-0.6-0.7-0.5-0.1-0.5
	c-1.1-0.5,0.2-0.4,0.1-0.7c-0.4-0.1-2.1-0.7-1.1,0.1c-1-0.5-0.2,0.2-0.5,0.1c-1-0.3,0.9,0.8-0.2,0.5c0.6,0.5,1.6,1.2,0.2,0.5
	C17.4,30.5,18.6,30.9,18.8,31.1L18.8,31.1z M21.8,33.1c0.8,0.2,0.8-0.1,0.1-0.2c-0.4-0.4-1.7-0.8-0.5,0C21.4,33,21.7,33,21.8,33.1
	L21.8,33.1z M20.3,32.3C20.1,32.2,20.3,32.4,20.3,32.3z M21,17.8C21.2,17.7,21.1,18,21,17.8z M20.6,20.5C20.3,20,21,18.2,21,19.3
	c-0.3,0.9-0.1,1.3,0.1,0.2C21.6,18.6,21.1,21.2,20.6,20.5L20.6,20.5z M20.2,21.2C20.1,20.7,20.4,21.7,20.2,21.2z M20.4,21.9
	C20,20.8,20.8,22.4,20.4,21.9z M20.6,22.3C20.6,22,20.7,22.6,20.6,22.3z M17.5,20.5C17.8,19.9,18,21.2,17.5,20.5z M16.4,19.9
	C16.6,19.8,16.5,20.1,16.4,19.9z M21.1,23.5C21.3,22.3,21.2,24.3,21.1,23.5z M16.9,21.1c0.2-0.3-0.6-1.5,0.1-0.4
	c0.3,0.3,0.9,0.4,0.4,0.5C18.3,21.9,17.2,21.4,16.9,21.1L16.9,21.1z M21.3,23.9c0.1-1.1,0.3-0.7,0,0.2L21.3,23.9z M16.5,21.5
	c0.6-0.1,2.3,1,0.7,0.3C17,21.6,16.6,21.7,16.5,21.5L16.5,21.5z M21.7,25.1C21.8,24.4,21.7,25.5,21.7,25.1z M19.4,23.6
	C19.3,22.5,19.6,23.8,19.4,23.6z M16.3,22c-1-1.3,2.8,1.3,0.6,0.3C16.7,22.2,16.5,22.2,16.3,22z M21.6,25.5
	C21.7,25.2,21.6,25.9,21.6,25.5z M21.9,25.8C21.9,25.1,22,26.3,21.9,25.8z M20.3,24.9c-0.6-0.4-0.2-2.7,0.1-1.1
	c0.6-0.2,0,0.8,0.4,0.8C20.7,25.2,20.5,25.4,20.3,24.9L20.3,24.9z M16.1,22.4c-1.5-1.3,1.9,0.7,0.2,0.2L16.1,22.4z M17,23.3
	C16.6,22.5,17.5,23.7,17,23.3z M16.5,23.2C16.8,22.9,16.7,23.5,16.5,23.2z M15.7,23.2c-0.5-0.5-0.9-1,0-0.3c0.3,0-0.8-1.1,0.1-0.3
	C16.8,22.7,16.3,24,15.7,23.2L15.7,23.2z M17.2,24.3C17.5,23.7,17.7,25.2,17.2,24.3z M16.6,24.1C16.7,23.3,16.9,24.7,16.6,24.1z
	 M18,25.1c-0.3-0.5-0.5-1.1-0.5-1.7c0,0,0,0,0,0l0,0c0.1,0.5,1.1,2.2,0.5,0.7c-0.7-1.3,0.8,0.4,1,0.7c0.1,0.3-0.4-0.1-0.1,0.7
	C18.3,24.6,18.5,25.9,18,25.1L18,25.1z M22.4,28c-0.5-1.1,0.3-0.6,0.1,0.2L22.4,28z M19.8,27.2C19.6,26.8,20.3,27.5,19.8,27.2z
	 M22.8,29.3C23,28.6,23.1,29.9,22.8,29.3z M18.6,27C18.9,26.9,18.7,27.5,18.6,27z M23.9,30.7C23.4,29.7,24.6,30.9,23.9,30.7z
	 M24.4,31.2C24.3,30.6,24.5,31.7,24.4,31.2z M29.4,35.1C29.7,35.1,29.4,35.3,29.4,35.1z M25,32.3c-0.4-0.4-0.5-1.2-0.1-0.5
	C25.2,31.8,25.6,33,25,32.3z M26.4,36.1c1.1-0.6,0.7,1.5,1.8,0.2c1.1-0.8-0.9,1,0.4,0.1c1-0.6,2.4,0.3,3.2,0.6
	c0.6,0,1.3,0.6,1.9,0.2c1.3-0.3-2.5-0.5-1.5-1.1c-0.2,0-0.3,0.1-0.5,0.1c-0.9,0-1.6-0.5-2.1-1.2l0,0c-1.4-0.2-2.6-1-3.4-2.1l0,0
	c-0.3-0.4,0.4,0.1-0.2-0.6c-0.7-0.7-1.2-1.4-1.7-2.3l0-0.1c-0.6-0.3-0.7-1.3-0.8,0c0-0.8-0.8-1.4-0.9-1.1c0-0.8,0.8-0.4,0.2-1
	c-0.1-0.8-0.5-1.7-0.6-2.6c-0.2-0.4,0-1.4-0.6-0.4c-0.2,1.1-0.1-1.3,0.3-0.5c0.5-0.8-0.2-0.7-0.2-0.6c0.3-0.7,0.2-1.6-0.1-1.3
	c0.2-0.7,0.3-2.6-0.2-2.3c0.3-0.7,0.6-3.4-0.7-2.4c-0.7,0-1.3,0.2-1.9,0.4l0,0c1.3,0.7-0.1,0.3-0.7,0.1c-0.1,0.7-0.6,0.4-1.3,0.4
	c1.1,0.1-0.5,1.1-1.1,0.7c-0.8,0.4,0.7,1.3,0,1.6c0.1,0.4-1.2-0.2-1.1,0.9c-0.8-0.3-0.1,1.2,0.3,0.7c1.3,0.4,0.9,1.2,1,2
	c-0.2,0.5-1.1-1.1-0.2-1c-0.7-1.1-0.8-0.4-1.3,0.1c-0.1,0,1.5,0.7,0.5,1.1c0.9,0.1,0.9,0.9,1.1,1.4c0.5,0.6,0.4-0.6,1.1,0.1
	c-0.4-0.6-2.1-1.7-0.7-1.3c0-0.6-0.3-1.1,0.2-1.1c0.4-0.8-0.4,1.9,0.5,0.9c0.3-0.1,0.3-0.8,0.8,0.1c0.7,0.7,0.2,1.2-0.7,0.6
	c0.2,0.6,1.3,0.8,1.1,1.7c0.2,0.8,0.5,0.5,0.8,0.5c0.2,0.8,0.3,0.2,0.3-0.2c1,0.2,0.8,0.8,1.1,1.2c0.7,0.3-1-2.1,0.2-0.7
	c1.2,1.1,0.5,1.6-0.6,1.4c0.7-0.1,0.9,0.9,1.8,0.9c0.8,0.4,1.3,1.8,0,1.2c-0.5-0.4-2.2-1-0.8-0.1c1.4,0.6,2.6,1.1,3.7,1.8l-0.2-0.1
	c0.9,0.6,1.3,1.3,1.6,1.5c-0.7,0.4-2.2-0.3-1.1-0.5c-0.7-0.1-1.5-0.5-0.8,0.4c0.6,0.5,2,0.4,2.2,0.5c-0.2,0.5-0.6,0.5,0,0.6
	C25.4,35.9,26.3,35.9,26.4,36.1L26.4,36.1z M22.4,33.7c1.1,0.1-1.3-0.8-0.2-0.1L22.4,33.7z M25.4,35.7
	C26.4,35.4,24.5,35.6,25.4,35.7z M19.7,32.1C20.3,32.1,18.6,31.7,19.7,32.1z M23.1,34.3C23.2,34,22.4,34.2,23.1,34.3z M28.1,37.6
	C28.1,37.3,27.8,37.7,28.1,37.6z M23.5,34.7C23.3,34.6,23.4,34.8,23.5,34.7z M16.1,30C16,29.6,15.2,29.3,16.1,30z M18.9,31.9
	C19.8,31.8,17.8,31.5,18.9,31.9z M21.3,33.6C21.2,33.3,20.8,33.6,21.3,33.6z M27.6,37.5C27.6,37,27.1,37.8,27.6,37.5z M18.8,32
	C18.7,31.8,18.4,32.1,18.8,32z M25.1,36.1C26.6,36.1,23.8,35.9,25.1,36.1z M22.4,34.5c1.6,0.4-1.3-1-0.4-0.2l0.2,0.1L22.4,34.5
	L22.4,34.5z M23.8,35.6C24,35.1,22.6,35.3,23.8,35.6z M19.3,32.9c0.6,0.5,2.6,0.1,1-0.3c-0.7-0.4-2.4-0.6-1.2,0.2L19.3,32.9z
	 M22.9,35.3C23.5,35.1,21.9,35.1,22.9,35.3z M21.5,34.5C22,34.2,20.7,34.3,21.5,34.5z M20,33.6C19.9,33.4,19.1,33.3,20,33.6z
	 M25.3,37.8c0.5,0.3,3.2,0.8,1.5,0.1C26.6,38,23.8,37.1,25.3,37.8L25.3,37.8z M22,35.6C21.9,35.4,21.7,35.8,22,35.6z M21.3,35.3
	C21.9,34.9,20.4,35.3,21.3,35.3z M24.2,37.4C24.5,37,23.4,37.2,24.2,37.4z M22.7,36.5C23.1,36.1,22,36.3,22.7,36.5z M21.8,36.1
	C21.7,35.8,21.5,36.3,21.8,36.1z M21.1,35.9C21.4,35.7,20.7,35.7,21.1,35.9z M15.7,31.1C15.7,30.9,15.9,31.5,15.7,31.1z M19.5,35.3
	c1.3,0.5,0-0.9-0.6-0.8c-0.3-0.5-1-0.8-0.5-1c-1,0.3-1-1.3-1.5-1c-1-0.3-0.4-1.5-1.6-2.2c-0.1-0.7-1.2-1.4-1.6-2.5
	c-0.2-0.6-1.2-2.2-0.6-0.7c0.7,1.5,1.5,2.8,2.4,4l0-0.1c0.6,1.3,1.5,2.4,2.6,3.2l0,0C18.6,34.6,18.9,35.2,19.5,35.3L19.5,35.3z
	 M22.1,37.1c1.2,0.6,2.6,1.1,4.1,1.4l0.1,0c1.4,0.3,3.1,0.5,4.7,0.5c0.9,0,1.7-0.1,2.6-0.1l-0.1,0c-1.1-0.5-2.2,0.2-3.3-0.3
	c-0.4,0-0.8,0.1-1.3,0.1c-1,0-1.9-0.1-2.8-0.3l0.1,0c-1.8-0.6-3.3-1.3-4.7-2.1l0.2,0.1c-1.7-0.6,0.9,0.8,1.4,0.9
	c1.1,0.6-1.2-0.3-1.5-0.6c-0.9-0.5-1-0.4-0.1,0.1C21.7,36.9,21.9,37,22.1,37.1L22.1,37.1z M19.9,36.2c-1.3-0.9-2.5-2-3.5-3.2l0,0
	c-1.8-2.2-3.3-4.9-4.3-7.7L12,25c-0.6-1.8-0.8-3.8-1.6-5.6c-0.2-0.3-0.3-0.6-0.3-1c0-1.1,0.8-1.9,1.8-2.1l0,0
	c0.6-0.1,1.7-0.7,0.4-0.3c-1.2,0.9-1.3-0.8-0.1-0.9c0.5,0,1-0.4,1-1c0-0.2,0-0.3-0.1-0.4l0,0c-0.9-0.6,2.2-1.2,0.6-2.1
	c-1.6-1.7,2.3-2.1,1.3-0.1c-0.2,1.5,2.7-0.3,2,1.5c0.7,0.8,2.6,0.2,2.5,1.4c1,0.1,1.4,0.9,2.3,1c1,0.4,2.8,0.8,3.1,1.9
	c-1,0.8-3.2-1.6-3.3,0.5c0,3.4,0.5,6.6,1.4,9.6l-0.1-0.2c0.7,1.8,1.8,3.4,3.1,4.7l0,0c1.2,1.3,2.6,2.4,4.2,3.1l0.1,0
	c1.3,0.6,2.7,1.1,4.3,1.3l0.1,0c0.6-0.5,1.7-2.2,2.6-1.5c0,0.8-1.9,1.7-0.1,1.6c1.1-0.3,1.8,0.8,2.7-0.2c0.8,1,3.3-0.6,2.8,1.3
	c-0.8,0.5-1.9,0.2-2.7,0.9c-1.3-0.6-2.3,0.6-3.7,0.4c-1.4,0.3-3,0.4-4.6,0.4c0,0-0.1,0-0.1,0h0c-2.8,0-5.4-0.5-8-1.3l0.2,0.1
	C22.4,37.7,21,37,19.9,36.2L19.9,36.2L19.9,36.2z"/>
</svg>
