<?xml version="1.0" encoding="utf-8"?>
<!-- Generator: Adobe Illustrator 25.2.3, SVG Export Plug-In . SVG Version: 6.00 Build 0)  -->
<svg version="1.1" id="Layer_1" xmlns="http://www.w3.org/2000/svg" xmlns:xlink="http://www.w3.org/1999/xlink" x="0px" y="0px"
	 viewBox="0 0 50.7 50.7" style="enable-background:new 0 0 50.7 50.7;" xml:space="preserve">
<style type="text/css">
	.st0{fill:#1D1D20;}
</style>
<g>
	<g>
		<path class="st0" d="M36.6,31.4c0.1,0.3,0.1,0.6,0.2,1c0.1,0.5,0.2,1.1,0.3,1.7c0.1,0.6,0.1,1.2,0.1,1.8c0,0.8-0.1,1.6-0.3,2.4
			c-0.2,0.6-0.4,1.2-0.8,1.8c-0.4,0.6-1,1.1-1.8,1.3c-0.4,0.1-0.7,0.1-1.1,0.1c-0.8,0-1.5-0.2-2.2-0.5c-0.7-0.3-1.4-0.7-2-1.1
			c-1-0.7-1.9-1.4-2.8-2.2c0,0,0,0,0,0c-0.1-0.1-0.1-0.1-0.1,0c-0.7,0.6-1.3,1.2-2.1,1.7c-0.8,0.6-1.6,1.1-2.5,1.5
			c-0.5,0.2-1.1,0.4-1.7,0.5c-0.5,0.1-1,0.1-1.5,0.1c-0.9-0.1-1.7-0.6-2.2-1.3c-0.4-0.5-0.6-1.2-0.8-1.8C15.1,37.6,15,37,15,36.3
			c0-0.5,0-1,0-1.5c0-0.6,0.1-1.2,0.2-1.9c0.1-0.5,0.2-0.9,0.3-1.4c0-0.1,0-0.1-0.1-0.1c-0.8-0.2-1.5-0.5-2.2-0.8
			c-1-0.4-2-0.9-2.8-1.6c-0.6-0.4-1.1-0.9-1.6-1.5c-0.3-0.5-0.6-0.9-0.7-1.5C8,25.4,8,24.8,8.3,24.2c0.2-0.5,0.5-1,0.9-1.4
			c0.5-0.6,1.2-1.1,1.9-1.6c1-0.6,2-1.1,3.1-1.5c0.5-0.2,0.9-0.3,1.4-0.4c0.1,0,0.1,0,0.1-0.1c-0.2-0.7-0.3-1.5-0.4-2.2
			c-0.1-0.9-0.2-1.8-0.2-2.7c0-0.8,0.1-1.6,0.4-2.3c0.2-0.5,0.4-1,0.8-1.5c0.5-0.6,1.2-1,2-1.1c0.7-0.1,1.4,0,2.1,0.2
			c0.7,0.2,1.4,0.5,2.1,0.9c1.1,0.6,2.1,1.3,3,2.2c0.2,0.2,0.5,0.4,0.7,0.6c0.1,0.1,0.1,0.1,0.1,0c0.5-0.5,1.1-1,1.6-1.4
			c0.8-0.7,1.7-1.3,2.7-1.7c0.6-0.3,1.2-0.5,1.8-0.6c0.5-0.1,1.1-0.2,1.6-0.1c0.8,0.1,1.5,0.5,2,1.2c0.4,0.5,0.6,1,0.8,1.5
			c0.2,0.6,0.3,1.1,0.3,1.7c0.1,0.6,0.1,1.2,0,1.9c0,0.5-0.1,1.1-0.2,1.6c-0.1,0.7-0.2,1.3-0.4,2c0,0.1,0,0.1,0.1,0.1
			c0.7,0.2,1.4,0.5,2.1,0.7c0.9,0.4,1.7,0.8,2.5,1.3c0.6,0.4,1.2,0.9,1.7,1.4c0.4,0.4,0.7,0.9,0.9,1.4c0.2,0.4,0.3,0.9,0.2,1.4
			c0,0.5-0.2,0.9-0.4,1.4c-0.3,0.5-0.7,1-1.1,1.4c-0.7,0.6-1.4,1.1-2.2,1.6C39.1,30.5,37.9,30.9,36.6,31.4
			C36.6,31.3,36.6,31.3,36.6,31.4z M25.9,31.1c1.2,0,2.3,0,3.4-0.1c0.1,0,0.1,0,0.1-0.1c0.3-0.5,0.7-1,1-1.5c0.8-1.3,1.5-2.6,2.2-4
			c0-0.1,0-0.1,0-0.2c-0.6-1.3-1.3-2.5-2.1-3.7c-0.4-0.6-0.7-1.2-1.1-1.8c0-0.1-0.1-0.1-0.1-0.1c-0.1,0-0.2,0-0.4,0
			c-0.6,0-1.2-0.1-1.7-0.1c-1,0-2,0-2.9,0c-0.4,0-0.9,0-1.3,0.1c-0.1,0-0.1,0-0.2,0.1c-0.5,0.7-0.9,1.4-1.3,2.1
			c-0.6,1.1-1.3,2.2-1.8,3.3c0,0.1,0,0.2,0,0.3c0.5,1,1,2,1.6,3c0.5,0.9,1,1.7,1.6,2.5c0,0.1,0.1,0.1,0.1,0.1c0.3,0,0.6,0,0.9,0
			C24.5,31.1,25.2,31.1,25.9,31.1z M9.6,25.3c0,0.1,0,0.1,0,0.2c0,0.1,0,0.2,0.1,0.3c0.1,0.4,0.4,0.8,0.7,1.1
			c0.4,0.5,0.9,0.9,1.5,1.2c1.3,0.8,2.7,1.4,4.1,1.8c0.1,0,0.1,0,0.1,0c0-0.1,0.1-0.3,0.1-0.4c0.4-1.4,1-2.7,1.6-4.1
			c0-0.1,0-0.1,0-0.2c-0.5-1.1-1-2.3-1.4-3.4c-0.1-0.3-0.2-0.6-0.3-0.9c0-0.1,0-0.1-0.1-0.1c0,0-0.1,0-0.1,0
			c-1.1,0.3-2.2,0.7-3.3,1.3c-0.7,0.4-1.3,0.8-1.9,1.3c-0.3,0.3-0.7,0.7-0.9,1.1C9.7,24.7,9.6,25,9.6,25.3z M16.5,35.8
			c0,0.3,0,0.5,0,0.8c0,0.5,0.1,0.9,0.2,1.3c0.1,0.4,0.3,0.8,0.5,1.1c0.2,0.3,0.5,0.5,0.8,0.6c0.2,0.1,0.5,0.1,0.7,0.1
			c0.3,0,0.6,0,0.9-0.1c0.7-0.2,1.3-0.4,1.9-0.7c1.3-0.7,2.4-1.6,3.4-2.6c0.1-0.1,0.1-0.1,0-0.1c-1.1-1.2-2-2.4-3-3.7
			c-0.1-0.1-0.1-0.1-0.2-0.1c-0.4,0-0.9-0.1-1.3-0.1c-0.4,0-0.8-0.1-1.2-0.2c-0.7-0.1-1.4-0.2-2.1-0.4c-0.1,0-0.1,0-0.1,0.1
			c-0.2,0.6-0.3,1.3-0.4,2C16.6,34.5,16.5,35.2,16.5,35.8z M27.2,36.3C27.2,36.4,27.2,36.4,27.2,36.3c0.3,0.3,0.6,0.5,0.8,0.7
			c0.8,0.7,1.6,1.3,2.5,1.8c0.6,0.3,1.2,0.6,1.8,0.8c0.4,0.1,0.9,0.2,1.3,0.1c0.4-0.1,0.7-0.2,1-0.5c0.3-0.3,0.5-0.7,0.6-1.1
			c0.2-0.7,0.3-1.4,0.3-2.1c0-0.7,0-1.4-0.1-2.1c-0.1-0.7-0.2-1.5-0.4-2.2c0-0.1,0-0.1-0.1-0.1c-0.6,0.1-1.3,0.3-1.9,0.4
			c-0.9,0.1-1.8,0.3-2.7,0.3c-0.1,0-0.2,0-0.2,0.1C29.2,33.9,28.3,35.1,27.2,36.3C27.2,36.3,27.2,36.3,27.2,36.3z M25,14.4
			c-0.1-0.1-0.1-0.1-0.2-0.2c-0.9-0.8-1.9-1.6-2.9-2.2c-0.7-0.4-1.4-0.7-2.1-0.9c-0.4-0.1-0.8-0.2-1.3-0.1c-0.5,0-0.8,0.2-1.1,0.6
			c-0.2,0.2-0.3,0.4-0.4,0.7c-0.2,0.4-0.3,0.9-0.3,1.4c-0.1,0.8-0.1,1.6,0,2.4c0,0.5,0.1,0.9,0.2,1.4c0.1,0.5,0.2,1,0.3,1.5
			c0,0.1,0,0.1,0.1,0.1c0,0,0,0,0,0c0.8-0.2,1.6-0.3,2.5-0.5c0.7-0.1,1.4-0.2,2.1-0.3c0.1,0,0.1,0,0.2-0.1c0.8-1.1,1.6-2.2,2.6-3.2
			C24.7,14.7,24.8,14.6,25,14.4z M35.5,14.9c0-0.2,0-0.5,0-0.7c0-0.5-0.1-1-0.2-1.4c-0.1-0.4-0.3-0.8-0.5-1.2
			c-0.3-0.5-0.8-0.7-1.4-0.7c-0.4,0-0.8,0.1-1.2,0.2c-0.6,0.2-1.2,0.5-1.8,0.8c-1.2,0.7-2.2,1.5-3.2,2.5c-0.1,0.1-0.1,0.1,0,0.1
			c1,1.1,2,2.3,2.9,3.6c0.1,0.1,0.1,0.1,0.3,0.2c0.7,0.1,1.4,0.2,2.1,0.3c0.8,0.1,1.6,0.3,2.4,0.5c0.1,0,0.1,0,0.2-0.1
			c0.1-0.6,0.2-1.1,0.3-1.7C35.5,16.4,35.5,15.7,35.5,14.9z M42.5,25.3c0-0.3-0.1-0.6-0.2-0.8c-0.2-0.4-0.5-0.7-0.8-1
			c-0.5-0.5-1.1-0.9-1.8-1.2c-1.1-0.6-2.3-1.1-3.5-1.4c-0.1,0-0.1,0-0.1,0.1c-0.5,1.5-1,2.9-1.7,4.3c0,0.1,0,0.2,0,0.3
			c0.6,1.3,1.2,2.6,1.6,4c0,0.1,0.1,0.2,0.1,0.4c0,0.1,0,0.1,0.1,0c0.1,0,0.1,0,0.2-0.1c1.2-0.4,2.3-0.8,3.4-1.4
			c0.6-0.3,1.2-0.7,1.7-1.2c0.3-0.3,0.6-0.6,0.8-1C42.4,25.9,42.5,25.6,42.5,25.3z M33.4,27.1c-0.7,1.3-1.4,2.5-2.1,3.7
			c1.1-0.1,2.3-0.3,3.3-0.6C34.5,29.6,33.7,27.6,33.4,27.1z M23.9,32.6C24,32.7,24,32.7,23.9,32.6c0.7,0.9,1.4,1.7,2.1,2.5
			c0.1,0.1,0.1,0.1,0.2,0c0.7-0.8,1.4-1.6,2-2.5c0,0,0,0,0-0.1C26.8,32.7,25.4,32.7,23.9,32.6z M17.5,30.3c0.3,0.1,2.8,0.5,3.3,0.5
			c-0.8-1.2-1.5-2.4-2.1-3.7C18.2,28.2,17.8,29.2,17.5,30.3z M26.1,15.5c-0.8,0.8-1.5,1.7-2.1,2.6c1.4-0.1,2.8-0.1,4.2,0
			c0,0,0,0,0,0C28,17.7,26.4,15.8,26.1,15.5z M31.3,19.9c0.8,1.2,1.5,2.4,2.1,3.7c0.4-1,0.8-2,1.2-3.1C33.5,20.2,32.4,20,31.3,19.9z
			 M18.7,23.5c0.3-0.6,0.7-1.2,1-1.8c0.3-0.6,0.7-1.2,1.1-1.8c-0.1,0-0.1,0-0.2,0C20,20,19.4,20,18.9,20.2c-0.4,0.1-0.8,0.2-1.2,0.3
			c-0.1,0-0.1,0-0.1,0.1c0,0,0,0,0,0.1C17.9,21.5,18.2,22.5,18.7,23.5C18.7,23.5,18.7,23.5,18.7,23.5z"/>
		<path class="st0" d="M26.1,22.1c1.8,0,3.2,1.5,3.2,3.2c0,1.7-1.4,3.2-3.2,3.2c-1.8,0-3.2-1.4-3.2-3.2
			C22.8,23.5,24.3,22.1,26.1,22.1z"/>
	</g>
</g>
</svg>
