<?xml version="1.0" encoding="utf-8"?>
<!-- Generator: Adobe Illustrator 25.2.3, SVG Export Plug-In . SVG Version: 6.00 Build 0)  -->
<svg version="1.1" id="Layer_1" xmlns="http://www.w3.org/2000/svg" xmlns:xlink="http://www.w3.org/1999/xlink" x="0px" y="0px"
	 viewBox="0 0 38.8 54.1" style="enable-background:new 0 0 38.8 54.1;" xml:space="preserve">
<g>
	<path d="M22.5,28.6c0,0.1-0.2,0.2-0.4,0.3c-0.3,0.2-0.7,0.5-0.7,0.5c0,0,0,0,0,0c-3.1,2.4-6.1,5-9.1,7.8c-1-3.9-1.8-8.4-2.3-13
		C9,14.9,9.7,9.3,10.4,7.9c1.1,0.7,3.9,5,6.2,11.1c0.3,0.8,1,1.3,1.9,1.3c0.2,0,0.5,0,0.7-0.1c0.5-0.2,0.9-0.6,1.1-1
		c0.2-0.5,0.2-1,0.1-1.5c-1.9-5.2-5.8-13.8-10.2-13.8c-0.2,0-0.3,0-0.5,0C8.1,4.2,7,5.4,6.4,7.5C4.8,13,5.7,28.8,9.1,40.5
		c-5.1,5.2-7.8,8.9-7.8,8.9c-0.3,0.4-0.4,1-0.3,1.5c0.1,0.5,0.4,1,0.8,1.3c0.3,0.2,0.8,0.4,1.2,0.4c0.6,0,1.2-0.3,1.6-0.8
		c0.4-0.5,2.4-3.2,6-7c1.3,3.3,2.7,5.6,4.3,7c1.2,1,2.4,1.5,3.7,1.5c0.7,0,1.4-0.2,2.1-0.5c1-0.4,9.8-4.4,4.6-21.2
		c4-3,7.9-6.3,12.1-8.6c0,0,1.3-1.1,0.1-2.8c-1.1-1.5-2.4-0.7-2.4-0.7L22.5,28.6z M19.7,22.6 M19.2,49l-0.1,0
		c-0.1,0-0.3,0.1-0.5,0.1c-0.7,0-1.7-0.8-2.6-2.3c-0.8-1.3-1.6-3.1-2.4-5.3c2.7-2.6,5.4-5.1,8.3-7.5C25.2,46.5,19.4,48.9,19.2,49z"
		/>
</g>
</svg>
