<?xml version="1.0" encoding="utf-8"?>
<!-- Generator: Adobe Illustrator 25.2.3, SVG Export Plug-In . SVG Version: 6.00 Build 0)  -->
<svg version="1.1" id="Layer_1" xmlns="http://www.w3.org/2000/svg" xmlns:xlink="http://www.w3.org/1999/xlink" x="0px" y="0px"
	 viewBox="0 0 64.5 54.1" style="enable-background:new 0 0 64.5 54.1;" xml:space="preserve">
<style type="text/css">
	.st0{fill:none;stroke:#000000;stroke-width:5;stroke-linecap:round;stroke-miterlimit:10;}
</style>
<g>
	<path d="M63.5,12.2c-0.2-0.9-1-1.6-1.9-1.6c-0.1,0-0.2,0-0.4,0c-4.6,0.9-9.2,2.2-13.7,3.9c1.4-2.7,2.8-6.9,1.2-11.3
		c-0.4-1.1-1.3-1.9-2.4-2.2c-0.3-0.1-0.6-0.1-0.9-0.1c-0.8,0-1.5,0.3-2.2,0.8c-1.3,1.1-2.4,3.1-3.1,5.7c-0.9-0.7-1.9-1.1-3-1.1
		c-2.7,0-6.1,2.3-7.1,7.4l-0.4,0c-3.2,0.2-9.4,2.3-9.9,8.8c-0.1,0.8-0.2,3.4,1.4,5.1c0.3,0.3,0.8,0.7,1.4,1c0,0.1-0.2,0.2-0.4,0.3
		c-0.3,0.2-0.7,0.5-0.7,0.5c0,0,0,0,0,0c-3.1,2.4-6.1,5-9.1,7.8c-1-3.9-1.8-8.4-2.3-13C9,14.9,9.7,9.3,10.4,7.9
		c1.1,0.7,3.9,5,6.2,11.1c0.3,0.8,1,1.3,1.9,1.3c0.2,0,0.5,0,0.7-0.1c0.5-0.2,0.9-0.6,1.1-1c0.2-0.5,0.2-1,0.1-1.5
		c-1.9-5.2-5.8-13.8-10.2-13.8c-0.2,0-0.3,0-0.5,0C8.1,4.2,7,5.4,6.4,7.5C4.8,13,5.7,28.8,9.1,40.5c-5.1,5.2-7.8,8.9-7.8,8.9
		c-0.3,0.4-0.4,1-0.3,1.5c0.1,0.5,0.4,1,0.8,1.3c0.3,0.2,0.8,0.4,1.2,0.4c0.6,0,1.2-0.3,1.6-0.8c0.4-0.5,2.4-3.2,6-7
		c1.3,3.3,2.7,5.6,4.3,7c1.2,1,2.4,1.5,3.7,1.5c0.7,0,1.4-0.2,2.1-0.5c1-0.4,9.8-4.4,4.6-21.2c4-3,8.2-5.7,12.4-8
		c-0.5,3.1-0.7,6.7-0.4,10.7c0.5,6.3,2.2,9.6,5.1,10.2c0.2,0,0.4,0.1,0.6,0.1c0.7,0,1.3-0.2,1.9-0.6c0.7-0.5,1.2-1.3,1.4-2.2
		c0.4-2.5,0.7-8.5-2.2-21.4c5.9-2.6,11.9-4.6,17.9-5.7C63,14.3,63.7,13.3,63.5,12.2z M19.2,49l-0.1,0c-0.1,0-0.3,0.1-0.5,0.1
		c-0.7,0-1.7-0.8-2.6-2.3c-0.8-1.3-1.6-3.1-2.4-5.3c2.7-2.6,5.4-5.1,8.3-7.5C25.2,46.5,19.4,48.9,19.2,49z M27.9,22.7
		c-0.6,1.4-1.8,2.3-3.2,2.4h-0.1c-0.3,0-0.5,0-0.6-0.2c-0.3-0.3-0.4-1.4-0.4-2c0.2-3.2,2.8-4.4,4.6-4.9
		C28.6,19.8,28.5,21.3,27.9,22.7z M36,18.7c-0.3,0.1-0.8,0.2-1.2,0.2c-0.3,0-0.5-0.1-0.6-0.1c-0.3-0.2-0.6-0.9-0.5-2.2
		c0.1-4.9,2.6-6.4,3.4-6.4c0.6,0,1.2,0.9,1.5,2.3C39.1,15,38,17.5,36,18.7z M42.4,39.6c-0.4-0.8-1-2.5-1.2-5.7
		c-0.2-2.7-0.2-5.2,0-7.4C42.5,33.3,42.6,37.3,42.4,39.6z M43.6,13.3c-0.2-0.7-0.2-2,0-3.3c0.4-2.5,1.1-4,1.6-4.7
		C46,8.5,44.6,11.6,43.6,13.3z"/>
</g>
<g>
	<path class="st0" d="M38.8,11.2"/>
	<path class="st0" d="M38.8,11.2"/>
</g>
</svg>
