<?xml version="1.0" encoding="utf-8"?>
<!-- Generator: Adobe Illustrator 25.2.3, SVG Export Plug-In . SVG Version: 6.00 Build 0)  -->
<svg version="1.1" id="Layer_1" xmlns="http://www.w3.org/2000/svg" xmlns:xlink="http://www.w3.org/1999/xlink" x="0px" y="0px"
	 viewBox="0 0 400 400" style="enable-background:new 0 0 400 400;" xml:space="preserve">
<style type="text/css">
	.st0{fill:#FFFFFF;}
</style>
<g>
	<g>
		<path class="st0" d="M393.9,201.4c-1.5,1.7-3.2,3.6-5.1,5.5c-61,61-122,121.8-182.8,183c-5.7,5.8-8.7,4.3-13.6-0.6
			c-60.5-60.8-121.2-121.4-182-181.9c-5.1-5.1-6-8-0.4-13.5C71.2,133.1,132.2,72.1,192.9,11c5.7-5.8,8.7-4.3,13.6,0.6
			C267,72.4,327.8,133,388.4,193.6C390.5,195.7,393.4,197.4,393.9,201.4z M139.1,114.9c9.7-2.1,16-3.7,22.5-4.7
			c44.4-7.5,103.6,29.3,85.6,89.7c-6.9,23-21.7,38.5-45.6,43.2c-21.6,4.3-41.5,0.1-56.7-17.3c-11.4-13-11.7-28-6.7-43.6
			c4.6-14.7,15.7-21.9,30.1-24.6c13.7-2.6,29.7,5.3,33,16.4c1.8,6.1,2.1,12.3-3.6,17c-5.4,4.4-10.7,3.5-15.6-0.7
			c-5.8-5.1-11.7-6.8-17.1,0c-5.3,6.7-3.4,13.7,1.9,19.2c8.5,8.7,19.2,10.3,30.7,7.2c15.4-4.1,24.4-15.2,25.9-31.4
			c1.8-20-6.8-37.1-24.1-44.6c-22.3-9.7-44.5-7.9-63.9,7.1c-20,15.4-26.9,37.1-22.3,61.4c9.3,49.7,64.6,74,112.5,49.9
			c8.4-4.2,16.9-15.4,23.6-14.2c8.3,1.6,15,12.6,22.1,19.9c4,4.1,6.8,4.1,10.8,0c19.5-19.9,39.1-39.7,58.8-59.4
			c3.5-3.5,4-5.6,0.2-9.4c-45.5-45.2-90.8-90.6-136.2-136c-2.9-2.9-5.4-5.9-9.7-1.4C177.4,76.6,159.3,94.6,139.1,114.9z"/>
	</g>
</g>
</svg>
