<?xml version="1.0" encoding="utf-8"?>
<!-- Generator: Adobe Illustrator 25.2.3, SVG Export Plug-In . SVG Version: 6.00 Build 0)  -->
<svg version="1.1" id="Layer_1" xmlns="http://www.w3.org/2000/svg" xmlns:xlink="http://www.w3.org/1999/xlink" x="0px" y="0px"
	 viewBox="0 0 400 400" style="enable-background:new 0 0 400 400;" xml:space="preserve">
<style type="text/css">
	.st0{fill:#FFFFFF;}
	.st1{fill:#DF6227;}
</style>
<g>
	<g>
		<path class="st0" d="M179,9.3c14,0,28,0,42,0c0.8,1.8,2.5,1.6,4,1.8c14.6,2.3,29.4,4.8,43.1,10.3c30.9,12.5,58.1,30.6,78.9,57
			c15.3,19.4,28.2,40.1,34.7,64.5c3.2,12.1,4.9,24.5,9.1,36.3c0,14.6,0,29.3,0,43.9c-1.5,1.3-3.4,2.5,0,3.8c0,1.3,0,2.5,0,3.8
			c-4.3-0.4-3.1,3.3-3.7,5.3c-3.6,12.4-5.5,25.6-10.7,37.2c-12.2,27.2-28.3,51.6-52,71.1c-21.1,17.3-43.2,31.6-69.9,38
			c-11.2,2.7-22.3,5.8-33.5,8.6c-14.6,0-29.3,0-43.9,0c-0.8-1.8-2.5-1.6-4-1.9c-15.8-2.9-31.8-6.2-46.5-12.6
			c-19.7-8.5-38-19.6-54-34.4c-26.9-24.7-46.3-53.7-55.8-89.2c-2.7-9.9-3.2-20.4-7.7-29.9c0-15.3,0-30.5,0-45.8
			c1.8-0.8,1.6-2.4,1.9-4c4.2-27.8,12.7-54.3,28.3-77.6C59.4,65.8,86,42.6,118.7,27c8.8-4.2,17.8-8,27.5-9.8
			C157.3,15,168.1,12,179,9.3z M100.3,221.1c-2.7,14.6-10.8,17.8-23.3,10.1c-3.7-2.3-4.8-0.9-6.9,1.1c-2,1.9-1.8,3.4,0,5.6
			c5.5,6.6,16,9.3,26.1,6.2c10.4-3.2,16.2-9.8,16.4-19.5c0.3-12-0.1-24.1,0.2-36.1c0.1-4.6-3.1-8-5.7-5.5
			c-6.9,6.7-11.3,0.1-16.8-1.2c-2.3-0.5-5.1-0.2-7.5,0.4c-8.8,2.5-13.6,8.7-15.3,17.4c-1.9,10,1.9,18.7,9.2,24.6
			C83.8,229.9,92.2,227.8,100.3,221.1z M249.8,187.1c-8.7-6.3-15.9-8.1-23.7-1.6c-11.7,9.7-12.7,24.4-2.1,35.8
			c6.6,7.1,15.5,8.5,23.6,2.8c3.3-2.3,4.4-1.6,6.6,1.1c2.5,3.1,6.8,3,9.7,1.4c3.7-2,2.7-6.8,1.3-9.3c-2.4-4.3-2-8.5-2-12.8
			c-0.1-10.2-0.1-20.4,0-30.5c0-4.5,0.8-8.5-6.4-8.3c-6.6,0.1-7.3,2.9-6.9,8.1C250,177.7,249.8,181.8,249.8,187.1z M121.3,199.9
			c0,2.2,0,4.4,0,6.7c0.1,20.1,8.7,25.7,27,16.9c3.7-1.8,3.7,0.5,5.3,1.9c3.2,2.9,7.4,2.4,10.8,1.1c2.5-1,2-5.1,1.1-6.9
			c-5.1-10.2-2.8-21-3.1-31.5c-0.1-3.9-1.1-5.8-5.4-5.6c-3.9,0.2-6.8,0.3-6.6,5.5c0.3,6.3,0.2,12.7,0,19.1c-0.2,7-5.6,9.2-11,9.4
			c-5.8,0.2-6.6-4.7-6.6-9.5c0.1-6-0.2-12.1,0.1-18.1c0.2-4.3-1-6.3-5.8-6.4c-4.6,0-6.2,1.6-5.9,6.1
			C121.5,192.3,121.3,196.1,121.3,199.9z M193,193.8c0,6.3-0.1,12.7,0,19c0.1,11.9,5.4,16.3,16.7,14c2.4-0.5,5.5-0.6,5.3-4.1
			c-0.2-2.9,0.7-7.1-4-7.3c-6-0.3-5.2-4.5-5.2-8.1c-0.1-11.7-0.2-23.5,0.1-35.2c0.1-4.8-1.1-6.7-6.3-6.5c-4.7,0.2-7,1-6.7,6.3
			C193.2,179.2,193,186.5,193,193.8z M336.8,168.4c-8.8-2.7-13.8,0.8-18.4,7.7c-9,13.7-18.9,26.7-28.4,40.1c-2.2,3-5,5.8-4.9,10.2
			c6.4,0.9,11.9,1.7,16.4-5.3C312.8,203.4,324.9,186.1,336.8,168.4z M43.5,205c17-14.5,17-14.5,15.5-23.4
			c-9.8,7-21.3,10.8-30.7,18.2c-3.9,3.1-6.5,6.5-0.7,9.2c8.8,3.9,15.4,11,24.3,14.7c2.5,1,4.3,5.3,7.1,3c2.5-2,1.3-6.1,0.9-9.1
			c-0.7-4.4-4.4-6.5-8.3-8.3C48.8,208,45.3,208,43.5,205z M340.2,181.6c-4.8,15.2,10.2,16.2,16.8,24c-9.4,4.3-22.1,6.1-16.4,21.7
			c12.1-4.2,21.1-13.6,32.4-19c4.5-2.2,1.6-6-2-8.8C361.4,192.2,350.1,188.3,340.2,181.6z M184.8,205.5c0-5.7-0.3-11.4,0.1-17.1
			c0.3-4.7-1.4-6.1-5.9-5.9c-4.2,0.2-7.3,0.1-7.1,5.9c0.4,10.5,0.3,21,0,31.4c-0.1,4.9,0.7,7.4,6.6,7.4c6.1,0.1,6.6-2.7,6.3-7.4
			C184.6,215,184.8,210.3,184.8,205.5z M83.6,305.8c0.4-7.5-5.9-11.6-9.1-17.2c-0.7-1.2-2.2-0.6-3.3,0.3
			c-6.5,5.5-13.1,10.9-19.6,16.5c-0.5,0.4-0.6,1.7-0.5,2.5c1.3,7.4,10,14.3,17.3,13.9C75.6,321.3,83.4,313.1,83.6,305.8z
			 M340.2,320.9c2.6-4.4,4.6-7.6,6.5-10.8c3.8-6.3,2.6-11.9-1.9-17.4c-4.2-5.2-9.3-7.7-15.8-5.8c-7.2,2.1-8.4,9.8-12.6,14.6
			c-1.1,1.3,0.7,2.1,1.6,2.8C325.4,309.7,332.7,315.1,340.2,320.9z M166.7,361.4c0.1-7.9-7.4-16.1-14.7-15.9
			c-7.7,0.1-15.3,8.3-15.4,16.5c-0.2,8.4,6.7,15.8,14.5,15.7C158.8,377.7,166.6,369.5,166.7,361.4z M255,375.8
			c3.5,0.4,6.3-2.8,9.7-4c4.3-1.5,5.3-3.3,3.7-7.3c-1.4-3.7-3.4-5.1-7.1-2.9c-1,0.6-2.3,1.4-3.1-0.4c-0.2-0.5-0.1-1.4,0.2-1.6
			c1.5-1.2,2.7-0.6,4,0.6c2.4,2.5,2.1,5-0.2,7.2c-3.4,3.3-7.6,5.4-11.9,2.4c-4.9-3.4-7.2-8.4-5.3-14.7c1.7-5.6,5.1-7.7,10.7-6.2
			c2.1,0.5,5.1,3.5,6-0.7c0.6-2.9-3-3.7-5.3-4.4c-5.6-1.8-9.8,0.8-13.3,5c-4.2,5.1-5.3,10.8-2.2,16.7C243.7,371,247,376.2,255,375.8
			z M223.4,379.8c-3.7,0-7.4-0.2-11,0.1c-3.9,0.3-4.8-1.5-4.8-5c0-3,0.3-5,3.9-4.9c1.9,0,3.8-0.3,5.7-0.5c1.6-0.2,3.4-0.7,3.3-2.6
			c0-2.2-2-1.9-3.5-1.9c-1.3,0-2.6,0.1-3.8,0.3c-3,0.6-5.9,1.1-6.5-3c-0.8-4.9,3.1-4.6,6.1-5c2.2-0.3,4.4-0.4,6.6-0.5
			c2.3-0.1,2.7-1.5,1.7-3.1c-1.4-2.2-18.5-0.6-19.8,1.7c-0.8,1.4,1.5,26.4,2.6,27.2c0.7,0.5,1.7,0.9,2.5,0.9
			C212.2,383,218.2,383.8,223.4,379.8z M285.3,328.3c-1.7,6.2,0.5,10.9,4,15.5c3.5,4.6,3.6,9.6-1.4,13.3c-5.7,4.2-9.2,0.2-12.5-4
			c-3.2-4.2-4.4-10.2-10.6-13.1c0.5,7.5,3.7,13,7.7,17.7c5.4,6.4,12.6,6.3,18.9,2.3c6.7-4.2,6.6-11,2.9-17.5
			C291.5,337.7,288.3,333,285.3,328.3z M188.2,380.5c-14.4-1.9-14.5-1.9-13.1-16c0.3-3.3-1.5-8.3,5.2-7.7c5.6,0.5,9.8,1.9,10.3,8.6
			c0.3,4.1-1.3,7.9-1.9,12.3c4.9-0.4,6.5-2.7,6.3-6.8c-0.3-6.9-0.4-14.4-7.9-17.4c-4.4-1.8-9.7-2.9-14.7-1.3c-0.6,0.2-0.9,2.2-1,3.4
			c-0.5,7-1,13.9-1.4,20.9c-0.1,2-1.1,4.9,2.5,5C177.3,381.7,182.6,383.9,188.2,380.5z M35.4,283.5c8-3.1,13.1-0.8,17.6,5.5
			c2.8,4,7.3,3,11,0.5c4.1-2.8,6.3-6.8,4-11.3c-2.2-4.2-4.4-12.6-8.4-11.1C50.8,270.4,42,275.3,35.4,283.5z M69.2,329.3
			c4.1,4.7,7.4,1.9,10.4,1c5.7-1.6,6.3,1.1,6.1,5.8c-0.2,3.2-2.2,7.1,2.7,9.4c3.8-6.7-2.6-18.8,11.4-20.7c-12.4,0.8-7.8-7-7.6-12.3
			c0.1-2.3,0.3-5.1-2.3-5.4c-3.9-0.5-2.5,3.2-2.2,4.7c1.5,10-3.3,14.4-12.7,15.4C73.2,327.4,71.5,328.5,69.2,329.3z M131,362.9
			c-2.4-0.3-4.2-0.6-6-0.7c-9.6-0.7-12.3-3.8-11-12.9c0.9-6.4,7-9.7,14.3-8.5c1.4,0.2,3.6,4.6,4.7,0c0.7-2.6-1.5-4.2-3.7-4.7
			c-6.3-1.3-12-0.2-16.1,5.3c-4,5.5-4.1,18,0.5,21.3C118.7,366.3,124.6,368.7,131,362.9z M335.4,323.7c-2-1.5-3.3-0.6-4.9-0.4
			c-4.8,0.9-4.6,10.3-11.1,6.9c-4.3-2.3-7.7-6.4-11.5-9.7c-0.9-0.8-1.9-1.7-2.6-2.7c-0.9-1.3-1.7-3.1-3.5-2
			c-2.2,1.4-1.1,3.2,0.3,4.6c6.4,6.4,12.8,12.7,19.1,19C326.2,333.9,330.8,328.8,335.4,323.7z M289.2,321.9
			c6.7,9.2,12,16.4,17.2,23.7c1.1,1.5,2.5,2,4,0.9c2.3-1.8,0.7-3.2-0.9-4.4c-3.2-2.3-4.3-6-6.3-9.1
			C300.5,328.7,298.4,323.4,289.2,321.9z M184.8,172.1c-0.2-2.9,1.1-7-4.1-6.2c-3.1,0.5-8.1-2.7-8.6,3.8c-0.3,3.5-0.5,7.4,4.8,7
			C180.1,176.4,185,178.6,184.8,172.1z"/>
		<path class="st1" d="M100.3,221.1c-8.1,6.7-16.5,8.9-23.6,3.1c-7.3-5.9-11.2-14.6-9.2-24.6c1.7-8.8,6.6-14.9,15.3-17.4
			c2.4-0.7,5.1-1,7.5-0.4c5.5,1.3,9.9,7.9,16.8,1.2c2.6-2.5,5.8,0.9,5.7,5.5c-0.3,12,0.1,24.1-0.2,36.1c-0.2,9.7-6,16.3-16.4,19.5
			c-10.1,3.1-20.7,0.4-26.1-6.2c-1.8-2.2-2-3.6,0-5.6c2.1-2,3.2-3.4,6.9-1.1C89.4,238.9,97.6,235.7,100.3,221.1z M100.3,205.3
			c0-8-3.4-13.2-10.5-14.3c-5.6-0.9-12.4,7.2-11.7,13.7c0.7,6.7,5.2,11.5,11.7,11.7C96.8,216.6,100.3,211.5,100.3,205.3z"/>
		<path class="st1" d="M249.8,187.1c0-5.3,0.2-9.4-0.1-13.5c-0.4-5.2,0.3-7.9,6.9-8.1c7.2-0.1,6.5,3.8,6.4,8.3
			c-0.1,10.2-0.1,20.4,0,30.5c0,4.3-0.4,8.6,2,12.8c1.4,2.5,2.5,7.4-1.3,9.3c-2.9,1.5-7.2,1.7-9.7-1.4c-2.2-2.7-3.3-3.4-6.6-1.1
			c-8.1,5.7-17,4.3-23.6-2.8c-10.5-11.4-9.5-26.1,2.1-35.8C233.9,179,241.1,180.8,249.8,187.1z M249.8,204.6
			c0.1-8.1-3.9-14.2-9.7-13.7c-7.4,0.6-11.1,5.3-11.5,12.7c-0.3,6.7,5.8,13.7,12,13.1C247.6,216,250.1,211.1,249.8,204.6z"/>
		<path class="st1" d="M121.3,199.9c0-3.8,0.2-7.6-0.1-11.4c-0.3-4.5,1.3-6.1,5.9-6.1c4.8,0,6,2.1,5.8,6.4c-0.2,6,0,12.1-0.1,18.1
			c-0.1,4.8,0.7,9.7,6.6,9.5c5.5-0.2,10.8-2.4,11-9.4c0.2-6.3,0.3-12.7,0-19.1c-0.3-5.2,2.7-5.3,6.6-5.5c4.3-0.2,5.2,1.7,5.4,5.6
			c0.4,10.5-2,21.3,3.1,31.5c0.9,1.8,1.4,5.9-1.1,6.9c-3.4,1.3-7.6,1.8-10.8-1.1c-1.6-1.4-1.6-3.7-5.3-1.9
			c-18.3,8.8-26.9,3.2-27-16.9C121.3,204.4,121.3,202.2,121.3,199.9z"/>
		<path class="st1" d="M193,193.8c0-7.3,0.3-14.6-0.1-21.9c-0.3-5.3,2.1-6.1,6.7-6.3c5.2-0.2,6.4,1.7,6.3,6.5
			c-0.3,11.7-0.2,23.5-0.1,35.2c0,3.7-0.8,7.9,5.2,8.1c4.7,0.2,3.8,4.4,4,7.3c0.2,3.5-2.9,3.6-5.3,4.1c-11.3,2.3-16.6-2.1-16.7-14
			C192.9,206.5,193,200.2,193,193.8z"/>
		<path class="st1" d="M336.8,168.4c-11.9,17.7-24,35-35.3,52.7c-4.4,7-10,6.3-16.4,5.3c-0.1-4.4,2.8-7.2,4.9-10.2
			c9.5-13.4,19.4-26.4,28.4-40.1C323.1,169.2,328.1,165.6,336.8,168.4z"/>
		<path class="st1" d="M43.5,205c1.9,3,5.4,3,8.1,4.3c3.8,1.8,7.6,3.9,8.3,8.3c0.5,3,1.6,7-0.9,9.1c-2.8,2.3-4.7-2-7.1-3
			c-8.8-3.6-15.5-10.7-24.3-14.7c-5.9-2.6-3.2-6.1,0.7-9.2c9.4-7.4,20.9-11.3,30.7-18.2C60.4,190.4,60.4,190.4,43.5,205z"/>
		<path class="st1" d="M340.2,181.6c9.9,6.7,21.3,10.6,30.9,17.9c3.6,2.8,6.5,6.6,2,8.8c-11.4,5.4-20.4,14.8-32.4,19
			c-5.7-15.6,7-17.4,16.4-21.7C350.4,197.8,335.4,196.8,340.2,181.6z"/>
		<path class="st1" d="M184.8,205.5c0,4.8-0.2,9.5,0.1,14.3c0.3,4.7-0.2,7.5-6.3,7.4c-5.9-0.1-6.7-2.5-6.6-7.4
			c0.3-10.5,0.4-21,0-31.4c-0.2-5.8,2.9-5.7,7.1-5.9c4.5-0.2,6.2,1.2,5.9,5.9C184.5,194.1,184.8,199.8,184.8,205.5z"/>
		<path class="st1" d="M83.6,305.8c-0.2,7.3-8.1,15.5-15.1,15.9c-7.3,0.4-15.9-6.5-17.3-13.9c-0.1-0.8-0.1-2.1,0.5-2.5
			c6.5-5.6,13.1-11,19.6-16.5c1.1-0.9,2.6-1.5,3.3-0.3C77.7,294.2,84,298.3,83.6,305.8z M73.3,294.5c-4.9,3.5-9.4,7-14.2,10
			c-2.4,1.5-2.9,2.9-1.9,5.4c3.1,7.4,12.9,8.9,18,2.8C80.7,306.3,78.6,300.6,73.3,294.5z"/>
		<path class="st1" d="M340.2,320.9c-7.6-5.7-14.9-11.2-22.1-16.6c-0.9-0.7-2.8-1.5-1.6-2.8c4.2-4.9,5.4-12.6,12.6-14.6
			c6.5-1.8,11.6,0.6,15.8,5.8c4.4,5.5,5.6,11.1,1.9,17.4C344.8,313.2,342.9,316.5,340.2,320.9z M330.9,291.5c-4.4,0.2-9.8,5.5-7.8,9
			c3.1,5.4,9.9,9.8,16,11.8c3.4,1.1,5.1-6,4.8-9.5C343.5,296.5,340.3,291.3,330.9,291.5z"/>
		<path class="st1" d="M166.7,361.4c-0.1,8.1-8,16.3-15.7,16.3c-7.8,0.1-14.7-7.4-14.5-15.7c0.2-8.3,7.8-16.4,15.4-16.5
			C159.3,345.4,166.9,353.5,166.7,361.4z M161.8,360.6c-1.3-5.2-3.5-10-9.7-9.8c-6.9,0.2-10.1,5.6-10.4,11.5
			c-0.3,5.9,3.4,11,9.7,10.5C157.8,372.2,160.7,366.8,161.8,360.6z"/>
		<path class="st1" d="M255,375.8c-8,0.4-11.3-4.8-14.1-10.2c-3.1-5.9-2-11.6,2.2-16.7c3.5-4.2,7.7-6.8,13.3-5
			c2.2,0.7,5.9,1.5,5.3,4.4c-0.9,4.2-3.8,1.2-6,0.7c-5.6-1.4-9,0.7-10.7,6.2c-1.9,6.3,0.3,11.3,5.3,14.7c4.3,3,8.5,0.9,11.9-2.4
			c2.3-2.2,2.7-4.7,0.2-7.2c-1.2-1.3-2.5-1.9-4-0.6c-0.3,0.3-0.4,1.2-0.2,1.6c0.8,1.8,2.1,1,3.1,0.4c3.7-2.2,5.7-0.8,7.1,2.9
			c1.5,4,0.6,5.8-3.7,7.3C261.3,373.1,258.5,376.3,255,375.8z"/>
		<path class="st1" d="M223.4,379.8c-5.2,4-11.2,3.3-16.9,3.7c-0.8,0.1-1.8-0.4-2.5-0.9c-1.1-0.9-3.4-25.8-2.6-27.2
			c1.3-2.3,18.4-3.9,19.8-1.7c1,1.6,0.6,3-1.7,3.1c-2.2,0.1-4.4,0.2-6.6,0.5c-3,0.4-6.9,0.1-6.1,5c0.6,4.1,3.6,3.6,6.5,3
			c1.2-0.3,2.5-0.3,3.8-0.3c1.5,0,3.5-0.3,3.5,1.9c0,1.9-1.7,2.4-3.3,2.6c-1.9,0.2-3.8,0.5-5.7,0.5c-3.6-0.1-3.9,1.9-3.9,4.9
			c0,3.5,0.9,5.3,4.8,5C216,379.5,219.7,379.8,223.4,379.8z"/>
		<path class="st1" d="M285.3,328.3c3,4.8,6.2,9.4,9,14.3c3.7,6.5,3.8,13.3-2.9,17.5c-6.3,4-13.5,4-18.9-2.3
			c-4-4.8-7.2-10.2-7.7-17.7c6.2,2.9,7.3,8.9,10.6,13.1c3.3,4.2,6.8,8.3,12.5,4c5-3.7,4.9-8.7,1.4-13.3
			C285.8,339.2,283.6,334.4,285.3,328.3z"/>
		<path class="st1" d="M188.2,380.5c-5.6,3.4-10.9,1.2-15.9,1c-3.5-0.2-2.6-3.1-2.5-5c0.3-7,0.8-13.9,1.4-20.9
			c0.1-1.2,0.4-3.2,1-3.4c5-1.6,10.3-0.5,14.7,1.3c7.5,3,7.6,10.5,7.9,17.4c0.2,4.1-1.5,6.4-6.3,6.8c0.7-4.4,2.2-8.2,1.9-12.3
			c-0.4-6.8-4.6-8.2-10.3-8.6c-6.7-0.5-4.8,4.4-5.2,7.7C173.7,378.6,173.8,378.6,188.2,380.5z"/>
		<path class="st1" d="M35.4,283.5c6.6-8.2,15.4-13.1,24.2-16.4c4-1.5,6.2,6.8,8.4,11.1c2.3,4.5,0.1,8.6-4,11.3
			c-3.7,2.5-8.2,3.6-11-0.5C48.5,282.6,43.4,280.4,35.4,283.5z M59.1,286.1c2.2-0.6,5.8-1.4,4.8-4.9c-0.9-3.2-1.8-8.4-6.2-7.9
			c-2.3,0.2-7.3,2.2-6.4,6.6C52.1,283.2,54.2,286.3,59.1,286.1z"/>
		<path class="st1" d="M69.2,329.3c2.3-0.9,4-1.9,5.7-2.1c9.4-0.9,14.2-5.3,12.7-15.4c-0.2-1.5-1.7-5.2,2.2-4.7
			c2.7,0.3,2.4,3.1,2.3,5.4c-0.2,5.3-4.8,13.1,7.6,12.3c-14,1.9-7.6,14-11.4,20.7c-4.8-2.3-2.8-6.3-2.7-9.4c0.2-4.7-0.4-7.4-6.1-5.8
			C76.6,331.2,73.3,334.1,69.2,329.3z"/>
		<path class="st1" d="M131,362.9c-6.5,5.8-12.4,3.4-17.3-0.1c-4.6-3.3-4.4-15.8-0.5-21.3c4-5.6,9.8-6.6,16.1-5.3
			c2.2,0.5,4.4,2.1,3.7,4.7c-1.2,4.6-3.4,0.2-4.7,0c-7.3-1.2-13.4,2.1-14.3,8.5c-1.3,9.1,1.4,12.1,11,12.9
			C126.8,362.3,128.6,362.6,131,362.9z"/>
		<path class="st1" d="M335.4,323.7c-4.6,5.1-9.2,10.2-14.2,15.8c-6.3-6.3-12.7-12.6-19.1-19c-1.4-1.4-2.6-3.2-0.3-4.6
			c1.8-1.2,2.6,0.7,3.5,2c0.7,1,1.7,1.9,2.6,2.7c3.8,3.3,7.2,7.4,11.5,9.7c6.5,3.4,6.3-6.1,11.1-6.9
			C332.1,323,333.4,322.2,335.4,323.7z"/>
		<path class="st1" d="M289.2,321.9c9.2,1.5,11.2,6.8,14,11c2,3.1,3.1,6.8,6.3,9.1c1.6,1.1,3.1,2.6,0.9,4.4c-1.4,1.1-2.9,0.6-4-0.9
			C301.2,338.4,295.9,331.2,289.2,321.9z"/>
		<path class="st1" d="M184.8,172.1c0.2,6.5-4.7,4.3-7.9,4.6c-5.3,0.4-5.1-3.5-4.8-7c0.5-6.4,5.5-3.3,8.6-3.8
			C185.9,165.1,184.6,169.2,184.8,172.1z"/>
		<path class="st0" d="M100.3,205.3c-0.1,6.2-3.5,11.3-10.5,11.1c-6.5-0.2-11-4.9-11.7-11.7c-0.7-6.6,6.1-14.7,11.7-13.7
			C97,192.1,100.3,197.3,100.3,205.3z"/>
		<path class="st0" d="M249.8,204.6c0.3,6.6-2.1,11.4-9.1,12c-6.2,0.6-12.3-6.4-12-13.1c0.3-7.3,4.1-12,11.5-12.7
			C245.8,190.4,249.9,196.5,249.8,204.6z"/>
		<path class="st0" d="M73.3,294.5c5.3,6.1,7.4,11.8,1.9,18.2c-5.2,6.1-15,4.7-18-2.8c-1-2.5-0.5-3.9,1.9-5.4
			C63.9,301.5,68.4,298.1,73.3,294.5z"/>
		<path class="st0" d="M330.9,291.5c9.4-0.2,12.6,5,13,11.3c0.3,3.5-1.4,10.6-4.8,9.5c-6.1-2-12.9-6.4-16-11.8
			C321.1,297.1,326.5,291.7,330.9,291.5z"/>
		<path class="st0" d="M161.8,360.6c-1.1,6.2-4,11.6-10.4,12.2c-6.3,0.5-10.1-4.5-9.7-10.5c0.3-5.9,3.5-11.3,10.4-11.5
			C158.3,350.6,160.5,355.4,161.8,360.6z"/>
		<path class="st0" d="M59.1,286.1c-4.9,0.2-7.1-2.9-7.7-6.2c-0.9-4.4,4.1-6.4,6.4-6.6c4.4-0.5,5.3,4.7,6.2,7.9
			C65,284.7,61.3,285.5,59.1,286.1z"/>
	</g>
</g>
</svg>
