<?xml version="1.0" encoding="utf-8"?>
<!-- Generator: Adobe Illustrator 25.2.3, SVG Export Plug-In . SVG Version: 6.00 Build 0)  -->
<svg version="1.1" id="Layer_1" xmlns="http://www.w3.org/2000/svg" xmlns:xlink="http://www.w3.org/1999/xlink" x="0px" y="0px"
	 viewBox="0 0 40 20" style="enable-background:new 0 0 40 20;" xml:space="preserve">
<style type="text/css">
	.st0{fill:#FB692A;}
	.st1{fill:#FFFFFF;}
</style>
<rect class="st0" width="40" height="20"/>
<g>
	<g>
		<path class="st1" d="M11.1,5.7c0.4,0,0.7,0,1.1,0.1c1.4,0.1,2.4,1.3,2.4,2.7c-0.1,1.5-1.2,2.6-2.6,2.6c-0.5,0-1,0-1.4,0
			c-0.2,0-0.2,0-0.2-0.2c0.1-0.3,0.2-0.6,0.3-1c0.1-0.3,0.4-0.5,0.7-0.5c0.3,0,0.5,0,0.8-0.1c0.5-0.2,0.7-0.6,0.6-1
			c-0.1-0.4-0.4-0.7-0.9-0.8c-1,0-1,0-1.3,0.9c-0.3,1.2-0.7,2.4-1,3.6c-0.2,0.6-0.4,0.7-1,0.7c-0.3,0-0.8,0.2-0.9-0.1
			c-0.1-0.2,0.1-0.6,0.2-0.9c0.5-1.8,1-3.6,1.4-5.4c0.1-0.5,0.3-0.7,0.9-0.7C10.5,5.7,10.8,5.8,11.1,5.7C11.1,5.7,11.1,5.7,11.1,5.7
			z"/>
		<path class="st1" d="M29.6,12.8c-0.5,0-1,0-1.6,0c-1.1,0-1.7-0.9-1.4-1.9c0.2-0.6,0.3-1.3,0.5-1.9c0.3-0.9,1-1.5,1.9-1.5
			c0.8,0,1.5,0,2.3,0c1,0,1.6,0.8,1.4,1.8c0,0.2-0.1,0.4-0.2,0.6c-0.2,0.6-0.6,0.9-1.2,0.9c-0.8,0-1.6,0-2.4,0c-0.2,0-0.2,0-0.2-0.2
			c0.2-0.8,0.4-1,1.2-1c0.2,0,0.5,0,0.7,0c0.2,0,0.2-0.1,0.2-0.3c0-0.2-0.1-0.2-0.3-0.2c-0.5,0-1,0-1.6,0c-0.2,0-0.3,0.1-0.4,0.3
			c-0.1,0.5-0.3,0.9-0.4,1.4c-0.1,0.3,0.1,0.4,0.4,0.4c1,0,2.1,0,3.1,0c0.3,0,0.4,0,0.3,0.4c-0.3,1.2-0.3,1.2-1.6,1.2
			C30.3,12.8,29.9,12.8,29.6,12.8z"/>
		<path class="st1" d="M17.2,7.5c0.6,0,1.1,0,1.7,0c1,0,1.7,0.9,1.4,1.9c-0.2,0.8-0.4,1.7-0.7,2.5c-0.2,0.6-0.6,0.9-1.2,0.9
			c-0.9,0-1.9,0-2.8,0c-0.9,0-1.5-0.6-1.6-1.5c0-0.9,0.6-1.7,1.5-1.7c0.8,0,1.5,0,2.3,0c0.1,0,0.2,0,0.2,0.2c0,0.7-0.4,1-1.1,1
			c-0.3,0-0.6,0-0.9,0c-0.1,0-0.2,0-0.2,0.2c0,0.1,0.1,0.2,0.2,0.2c0.6,0.1,1.2,0.1,1.8,0c0.1,0,0.2-0.1,0.2-0.3
			c0.1-0.5,0.3-1,0.4-1.5c0.1-0.3-0.1-0.3-0.3-0.3c-0.8,0-1.7,0-2.5,0c-0.3,0-0.6-0.1-0.8-0.4c-0.2-0.4,0-0.7,0.1-1.1
			c0-0.1,0.2-0.1,0.3-0.1C16,7.5,16.6,7.5,17.2,7.5z"/>
		<path class="st1" d="M22.9,7.5c0.4,0,0.9-0.1,1.4,0.1c1.4,0.3,2.3,1.7,2,3.1c-0.1,0.6-0.3,1.1-0.4,1.7c-0.1,0.3-0.3,0.4-0.6,0.5
			c-0.3,0-0.6,0-0.9,0c-0.4,0-0.5-0.2-0.4-0.5c0.1-0.6,0.3-1.1,0.4-1.7c0.2-0.9-0.1-1.3-1-1.4c-0.8,0-0.8,0-1,0.7
			c-0.2,0.8-0.4,1.5-0.6,2.3c-0.1,0.4-0.3,0.5-0.7,0.5c-0.3,0-0.5,0-0.8,0c-0.3,0-0.4-0.2-0.4-0.5c0.4-1.5,0.8-3.1,1.2-4.6
			c0-0.2,0.1-0.2,0.3-0.2C22,7.5,22.4,7.5,22.9,7.5z"/>
		<path class="st1" d="M7.3,7.5c0.3,0,0.7,0,1,0c0.2,0,0.3,0,0.2,0.2c-0.1,0.3-0.2,0.6-0.3,1C8.2,9,7.9,9.2,7.6,9.2
			c-0.3,0-0.6,0-0.9,0c-0.6,0-0.9,0.4-1,0.9c0,0.5,0.4,0.9,0.9,0.9c1.1,0,0.9,0.2,0.7,1c-0.2,0.8-0.2,0.8-1,0.7
			c-1.4-0.1-2.4-1.3-2.4-2.7C4,8.7,5.1,7.5,6.5,7.5C6.8,7.5,7.1,7.5,7.3,7.5C7.3,7.5,7.3,7.5,7.3,7.5z"/>
		<path class="st1" d="M32.5,12.8c-0.3,0-0.2-0.2-0.1-0.3c0.4-1.4,0.7-2.8,1.1-4.2c0.2-0.7,0.4-1.4,0.5-2c0.1-0.3,0.3-0.5,0.6-0.5
			c0.2,0,0.5,0,0.7,0c0.5,0,0.6,0.2,0.5,0.6c-0.3,1-0.6,2.1-0.8,3.1c-0.2,0.6-0.3,1.2-0.5,1.8C34.2,12.1,33.3,12.8,32.5,12.8z"/>
	</g>
</g>
</svg>
