<?xml version="1.0" encoding="utf-8"?>
<!-- Generator: Adobe Illustrator 25.2.3, SVG Export Plug-In . SVG Version: 6.00 Build 0)  -->
<svg version="1.1" id="Layer_1" xmlns="http://www.w3.org/2000/svg" xmlns:xlink="http://www.w3.org/1999/xlink" x="0px" y="0px"
	 viewBox="0 0 40 20" style="enable-background:new 0 0 40 20;" xml:space="preserve">
<style type="text/css">
	.st0{fill:#007FCB;}
	.st1{fill:#FFFFFF;}
</style>
<rect class="st0" width="40" height="20"/>
<g>
	<g>
		<path class="st1" d="M26.9,9.3c0,1.1,0,2.2,0,3.3c0,0.3-0.1,0.5-0.4,0.7c-0.3,0.2-0.5,0.3-0.8,0.4c-0.3,0.2-0.6,0.3-0.9,0.5
			c-0.3,0.2-0.6,0.3-0.9,0.5c-0.3,0.2-0.6,0.3-0.9,0.5c-0.3,0.2-0.6,0.3-0.9,0.5c-0.3,0.2-0.6,0.3-0.9,0.5c-0.3,0.2-0.6,0.3-0.9,0.5
			c-0.2,0.1-0.4,0.1-0.7,0c-0.2-0.1-0.5-0.3-0.7-0.4c-0.2-0.1-0.3-0.2-0.5-0.3c-0.2-0.1-0.5-0.3-0.7-0.4c-0.2-0.1-0.4-0.2-0.6-0.3
			c-0.2-0.1-0.4-0.2-0.7-0.4c-0.2-0.1-0.3-0.2-0.5-0.3c-0.2-0.1-0.4-0.2-0.7-0.4c-0.2-0.1-0.3-0.2-0.5-0.3c-0.2-0.1-0.4-0.2-0.7-0.4
			c-0.2-0.1-0.4-0.2-0.6-0.3c-0.1-0.1-0.3-0.2-0.4-0.3c-0.1-0.1-0.1-0.3-0.1-0.5c0-1,0-2.1,0-3.1c0-1.2,0-2.4,0-3.6
			c0-0.2,0.1-0.4,0.2-0.5c0.1-0.1,0.2-0.2,0.3-0.2C14,5,14.3,4.9,14.5,4.8c0.2-0.1,0.3-0.2,0.5-0.3c0.2-0.1,0.4-0.2,0.7-0.4
			C15.8,4,16,4,16.2,3.9c0.2-0.1,0.5-0.3,0.7-0.4c0.2-0.1,0.3-0.2,0.5-0.3C17.6,3.1,17.8,3,18,2.8c0.2-0.1,0.4-0.2,0.6-0.3
			c0.3-0.1,0.5-0.3,0.8-0.4c0.1-0.1,0.3-0.1,0.4-0.2c0.2-0.1,0.4-0.1,0.6,0c0.1,0,0.2,0.1,0.4,0.2c0.1,0.1,0.3,0.2,0.4,0.2
			c0.2,0.1,0.5,0.3,0.7,0.4c0.1,0.1,0.3,0.2,0.4,0.2c0.2,0.1,0.5,0.3,0.7,0.4c0.2,0.1,0.3,0.2,0.5,0.3c0.2,0.1,0.5,0.3,0.7,0.4
			c0.2,0.1,0.3,0.2,0.5,0.3c0.2,0.1,0.4,0.2,0.6,0.3c0.2,0.1,0.3,0.2,0.5,0.3c0.2,0.1,0.4,0.2,0.6,0.4c0.1,0,0.2,0.1,0.2,0.1
			c0.2,0.1,0.3,0.3,0.3,0.6c0,0.1,0,0.3,0,0.4C26.9,7.3,26.9,8.3,26.9,9.3z M20.1,4.3c-0.4,0-0.7,0-1.1,0.1
			c-0.6,0.1-1.1,0.3-1.5,0.6c-0.8,0.5-1.4,1.1-1.8,1.9c-0.4,0.8-0.6,1.6-0.6,2.6c0,0.6,0.2,1.2,0.4,1.7c0.3,0.8,0.8,1.4,1.4,1.9
			c0.8,0.6,1.6,1,2.6,1.1c0.5,0.1,0.9,0,1.4,0c0.6-0.1,1.2-0.3,1.8-0.7c0.7-0.4,1.3-1,1.7-1.8c0,0,0-0.1,0-0.1
			c-0.7-0.4-1.4-0.8-2.1-1.2c0,0,0,0-0.1,0c-0.3,0.5-0.7,0.8-1.2,1c-0.6,0.2-1.3,0.2-1.9,0c-0.6-0.2-1-0.6-1.3-1.2
			c-0.3-0.5-0.3-1.1-0.2-1.6c0.1-0.6,0.4-1,0.8-1.4c0.6-0.5,1.3-0.7,2-0.6c0.7,0.1,1.3,0.5,1.7,1.1c0,0,0,0,0.1,0
			c0.7-0.4,1.4-0.8,2.1-1.2c0,0,0,0,0-0.1c-0.2-0.4-0.5-0.7-0.8-1c-0.3-0.3-0.7-0.6-1.1-0.8C21.7,4.5,20.9,4.3,20.1,4.3z M23.3,8.6
			c0-0.1,0-0.2,0-0.3c0,0,0,0,0,0c-0.2,0-0.4,0-0.6,0c0,0,0,0,0,0c0,0.2,0,0.4,0,0.6c0,0,0,0.1-0.1,0.1c-0.2,0-0.4,0-0.6,0
			c0,0,0,0,0,0c0,0.2,0,0.4,0,0.6c0,0,0,0,0,0c0.2,0,0.4,0,0.6,0c0,0,0.1,0,0.1,0.1c0,0.2,0,0.4,0,0.6c0,0,0,0.1,0.1,0.1
			c0.2,0,0.4,0,0.6,0c0,0,0.1,0,0.1,0c0-0.2,0-0.4,0-0.6c0-0.1,0-0.1,0.1-0.1c0.2,0,0.4,0,0.6,0c0,0,0.1,0,0.1-0.1
			c0-0.2,0-0.4,0-0.6c0,0,0-0.1-0.1-0.1c-0.2,0-0.4,0-0.6,0c-0.1,0-0.1,0-0.1-0.1C23.3,8.8,23.3,8.7,23.3,8.6z M24.7,8.9
			c-0.1,0-0.2,0-0.3,0c0,0,0,0,0,0c0,0.2,0,0.4,0,0.6c0,0,0,0,0,0c0.2,0,0.4,0,0.6,0c0,0,0.1,0,0.1,0.1c0,0.2,0,0.4,0,0.6
			c0,0,0,0,0,0c0.2,0,0.4,0,0.6,0c0,0,0.1,0,0.1-0.1c0-0.2,0-0.4,0-0.6c0,0,0-0.1,0.1-0.1c0.2,0,0.4,0,0.6,0c0,0,0.1,0,0.1-0.1
			c0-0.2,0-0.4,0-0.6c0,0,0-0.1-0.1-0.1c-0.2,0-0.4,0-0.6,0c0,0-0.1,0-0.1-0.1c0-0.2,0-0.4,0-0.6c0,0,0-0.1,0-0.1
			c-0.2,0-0.4,0-0.6,0c0,0-0.1,0-0.1,0.1c0,0.2,0,0.4,0,0.6c0,0.1,0,0.1-0.1,0.1C24.9,8.9,24.8,8.9,24.7,8.9z"/>
		<path class="st0" d="M20.1,4.3c0.8,0,1.6,0.2,2.3,0.6c0.4,0.2,0.8,0.5,1.1,0.8c0.3,0.3,0.6,0.6,0.8,1c0,0,0,0,0,0.1
			C23.7,7.2,23,7.6,22.3,8c0,0-0.1,0-0.1,0c-0.4-0.6-1-1-1.7-1.1c-0.8-0.1-1.5,0.1-2,0.6c-0.4,0.4-0.7,0.8-0.8,1.4
			c-0.1,0.6,0,1.1,0.2,1.6c0.3,0.6,0.7,1,1.3,1.2c0.6,0.3,1.2,0.3,1.9,0c0.5-0.2,0.9-0.5,1.2-1c0,0,0,0,0.1,0
			c0.7,0.4,1.4,0.8,2.1,1.2c0,0,0,0,0,0.1c-0.4,0.7-1,1.3-1.7,1.8c-0.5,0.3-1.1,0.6-1.8,0.7c-0.5,0.1-0.9,0.1-1.4,0
			c-1-0.1-1.9-0.5-2.6-1.1c-0.6-0.5-1.1-1.2-1.4-1.9c-0.2-0.6-0.4-1.1-0.4-1.7c0-0.9,0.1-1.8,0.6-2.6c0.4-0.8,1-1.4,1.8-1.9
			c0.5-0.3,1-0.5,1.5-0.6C19.4,4.3,19.7,4.3,20.1,4.3z"/>
		<path class="st0" d="M23.3,8.6c0,0.1,0,0.2,0,0.3c0,0.1,0,0.1,0.1,0.1c0.2,0,0.4,0,0.6,0C24,8.9,24,9,24,9c0,0.2,0,0.4,0,0.6
			c0,0,0,0.1-0.1,0.1c-0.2,0-0.4,0-0.6,0c-0.1,0-0.1,0-0.1,0.1c0,0.2,0,0.4,0,0.6c0,0,0,0.1-0.1,0c-0.2,0-0.4,0-0.6,0
			c0,0-0.1,0-0.1-0.1c0-0.2,0-0.4,0-0.6c0,0,0-0.1-0.1-0.1c-0.2,0-0.4,0-0.6,0c0,0,0,0,0,0c0-0.2,0-0.4,0-0.6c0,0,0,0,0,0
			c0.2,0,0.4,0,0.6,0c0,0,0.1,0,0.1-0.1c0-0.2,0-0.4,0-0.6c0,0,0,0,0,0c0.2,0,0.4,0,0.6,0c0,0,0,0,0,0C23.3,8.4,23.3,8.5,23.3,8.6z"
			/>
		<path class="st0" d="M24.7,8.9c0.1,0,0.2,0,0.3,0c0,0,0.1,0,0.1-0.1c0-0.2,0-0.4,0-0.6c0,0,0-0.1,0.1-0.1c0.2,0,0.4,0,0.6,0
			c0,0,0,0,0,0.1c0,0.2,0,0.4,0,0.6c0,0,0,0.1,0.1,0.1c0.2,0,0.4,0,0.6,0c0,0,0.1,0,0.1,0.1c0,0.2,0,0.4,0,0.6c0,0,0,0.1-0.1,0.1
			c-0.2,0-0.4,0-0.6,0c0,0-0.1,0-0.1,0.1c0,0.2,0,0.4,0,0.6c0,0,0,0.1-0.1,0.1c-0.2,0-0.4,0-0.6,0c0,0,0,0,0,0c0-0.2,0-0.4,0-0.6
			c0,0,0-0.1-0.1-0.1c-0.2,0-0.4,0-0.6,0c0,0,0,0,0,0c0-0.2,0-0.4,0-0.6c0,0,0,0,0,0C24.5,8.9,24.6,8.9,24.7,8.9z"/>
	</g>
</g>
</svg>
