<?xml version="1.0" encoding="utf-8"?>
<!-- Generator: Adobe Illustrator 25.2.3, SVG Export Plug-In . SVG Version: 6.00 Build 0)  -->
<svg version="1.1" id="Layer_1" xmlns="http://www.w3.org/2000/svg" xmlns:xlink="http://www.w3.org/1999/xlink" x="0px" y="0px"
	 viewBox="0 0 40 20" style="enable-background:new 0 0 40 20;" xml:space="preserve">
<style type="text/css">
	.st0{fill:#4C77BB;}
	.st1{enable-background:new    ;}
	.st2{fill:#FFFFFF;}
</style>
<rect class="st0" width="40" height="20"/>
<g class="st1">
	<path class="st2" d="M8.2,7.6v4.8c0,0,0,0.1-0.1,0.1H7c0,0-0.1,0-0.1-0.1v-1.8c0,0,0-0.1-0.1-0.1H5.5c0,0-0.1,0-0.1,0.1v1.8
		c0,0,0,0.1-0.1,0.1H4.2c0,0-0.1,0-0.1-0.1V7.6c0,0,0-0.1,0.1-0.1h1.1c0,0,0.1,0,0.1,0.1v1.7c0,0,0,0.1,0.1,0.1h1.4
		c0,0,0.1,0,0.1-0.1V7.6c0,0,0-0.1,0.1-0.1L8.2,7.6C8.1,7.5,8.2,7.5,8.2,7.6z"/>
	<path class="st2" d="M11.5,7.5v1c0,0,0,0.1-0.1,0.1h-0.9c0,0-0.1,0-0.1,0.1v3.7c0,0,0,0.1-0.1,0.1H9.3c0,0-0.1,0-0.1-0.1V8.7
		c0,0,0-0.1-0.1-0.1H8.4c0,0-0.1,0-0.1-0.1v-1c0,0,0-0.1,0.1-0.1L11.5,7.5C11.5,7.5,11.5,7.5,11.5,7.5z"/>
	<path class="st2" d="M16.8,12.4h-1.1c0,0-0.1,0-0.1-0.1l-0.2-2.5c0-0.1-0.1-0.1-0.1,0l-0.8,2.5c0,0,0,0-0.1,0h-0.7c0,0,0,0-0.1,0
		l-0.8-2.5c0-0.1-0.1-0.1-0.1,0l-0.2,2.5c0,0,0,0.1-0.1,0.1h-1.1c0,0-0.1,0-0.1-0.1l0.6-4.8c0,0,0-0.1,0.1-0.1h1.3c0,0,0,0,0.1,0
		L14,9.9c0,0.1,0.1,0.1,0.1,0l0.7-2.4c0,0,0,0,0.1,0h1.3c0,0,0.1,0,0.1,0.1L16.8,12.4C16.8,12.3,16.8,12.4,16.8,12.4z"/>
	<path class="st2" d="M19.9,11.3l-0.1,1c0,0,0,0.1-0.1,0.1h-2.7c0,0-0.1,0-0.1-0.1V7.5c0,0,0-0.1,0.1-0.1h1.1c0,0,0.1,0,0.1,0.1v3.7
		c0,0,0,0.1,0.1,0.1L19.9,11.3C19.9,11.2,19.9,11.3,19.9,11.3z"/>
</g>
<g class="st1">
	<path class="st2" d="M20.6,10.2V9.3h2.8v0.9H20.6z"/>
</g>
<g class="st1">
	<path class="st2" d="M29.2,11.5c-0.5,0.6-1.2,1-2,1c-1.4,0-2.5-1.2-2.5-2.6c0-1.4,1.1-2.6,2.5-2.6c0.4,0,0.8,0.1,1.2,0.3
		C28.7,7.8,29,8,29.2,8.3c0,0,0,0.1,0,0.1L28.3,9c0,0-0.1,0-0.1,0c-0.3-0.3-0.6-0.5-1-0.5c-0.8,0-1.4,0.6-1.4,1.4
		c0,0.8,0.6,1.4,1.4,1.4c0.4,0,0.8-0.2,1.1-0.5c0,0,0.1,0,0.1,0L29.2,11.5C29.2,11.4,29.2,11.5,29.2,11.5z"/>
	<path class="st2" d="M32.6,10.9c0,0.2,0,0.6-0.3,1c-0.3,0.4-0.7,0.6-1.4,0.6c-0.5,0-1-0.1-1.3-0.4c-0.1-0.1-0.3-0.4-0.4-0.8
		c0,0,0-0.1,0-0.1l1.1-0.2c0,0,0.1,0,0.1,0c0.1,0.3,0.4,0.4,0.4,0.4c0.3,0,0.4-0.2,0.4-0.4c0-0.2-0.2-0.3-0.9-0.6l-0.1,0
		c-0.3-0.1-1.2-0.5-1.2-1.4c0-1,0.9-1.5,1.7-1.5c0.2,0,0.4,0,0.7,0.1c0.2,0.1,0.6,0.3,0.7,0.9c0,0,0,0.1,0,0.1l-1,0.3
		c0,0-0.1,0-0.1,0c0-0.1-0.1-0.2-0.4-0.2c-0.2,0-0.4,0.1-0.4,0.4c0,0.2,0.1,0.3,1,0.7C32.3,9.9,32.6,10.2,32.6,10.9z"/>
	<path class="st2" d="M36,10.9c0,0.2,0,0.6-0.3,1c-0.3,0.4-0.7,0.6-1.4,0.6c-0.5,0-1-0.1-1.3-0.4c-0.1-0.1-0.3-0.4-0.4-0.8
		c0,0,0-0.1,0-0.1l1.1-0.2c0,0,0.1,0,0.1,0c0.1,0.3,0.4,0.4,0.4,0.4c0.3,0,0.4-0.2,0.4-0.4c0-0.2-0.2-0.3-0.9-0.6l-0.1,0
		c-0.3-0.1-1.2-0.5-1.2-1.4c0-1,0.9-1.5,1.7-1.5c0.2,0,0.4,0,0.7,0.1c0.2,0.1,0.6,0.3,0.7,0.9c0,0,0,0.1,0,0.1l-1,0.3
		c0,0-0.1,0-0.1,0c0-0.1-0.1-0.2-0.4-0.2c-0.2,0-0.4,0.1-0.4,0.4c0,0.2,0.1,0.3,1,0.7C35.7,9.9,36,10.2,36,10.9z"/>
</g>
</svg>
