<?xml version="1.0" encoding="utf-8"?>
<!-- Generator: Adobe Illustrator 25.2.3, SVG Export Plug-In . SVG Version: 6.00 Build 0)  -->
<svg version="1.1" id="Layer_1" xmlns="http://www.w3.org/2000/svg" xmlns:xlink="http://www.w3.org/1999/xlink" x="0px" y="0px"
	 viewBox="0 0 40 20" style="enable-background:new 0 0 40 20;" xml:space="preserve">
<style type="text/css">
	.st0{fill:#6FCDEE;}
	.st1{fill:#FFFFFF;}
</style>
<rect class="st0" width="40" height="20"/>
<g>
	<g>
		<path class="st1" d="M17.6,5.5c0.2,0,0.3,0,0.5,0c0,0,0,0,0,0c0.2,0,0.4,0.1,0.5,0.2c0.3,0.1,0.6,0.3,0.8,0.5
			c0.2,0.1,0.3,0.3,0.5,0.4c0,0,0,0,0.1,0c0,0,0.1-0.1,0.1-0.1c0.3-0.2,0.5-0.5,0.8-0.7c0.2-0.1,0.5-0.3,0.7-0.3c0.1,0,0.1,0,0.2,0
			c0,0,0,0,0,0c0.2,0,0.3,0,0.5,0c0,0,0,0,0,0c0,0,0,0,0.1,0c0.3,0.1,0.5,0.3,0.7,0.5c0.1,0.2,0.2,0.5,0.2,0.7c0,0.2,0,0.4,0,0.7
			c0,0.3-0.1,0.5-0.1,0.8c0,0.1,0,0.1,0,0.2c0,0,0,0,0,0c0.3,0.1,0.6,0.2,0.9,0.3c0.3,0.1,0.6,0.3,0.8,0.5c0.2,0.1,0.3,0.3,0.4,0.5
			c0.2,0.3,0.2,0.7,0,1c-0.1,0.2-0.2,0.3-0.3,0.4c-0.2,0.2-0.4,0.3-0.7,0.5c-0.4,0.2-0.7,0.3-1.1,0.4c-0.1,0-0.1,0,0,0.1
			c0.1,0.3,0.1,0.7,0.2,1.1c0,0.3,0,0.5,0,0.8c0,0.2-0.1,0.4-0.2,0.5c-0.1,0.2-0.3,0.4-0.6,0.5c0,0-0.1,0-0.1,0c0,0,0,0,0,0
			c-0.2,0-0.4,0-0.5,0c0,0,0,0,0,0c-0.1,0-0.1,0-0.2,0c-0.3-0.1-0.5-0.2-0.7-0.3c-0.3-0.2-0.6-0.5-0.9-0.7c0,0,0,0-0.1-0.1
			c0,0,0,0,0,0c0,0-0.1,0.1-0.1,0.1c-0.3,0.2-0.5,0.5-0.9,0.7c-0.2,0.1-0.5,0.3-0.7,0.3c-0.1,0-0.1,0-0.2,0c0,0,0,0,0,0
			c-0.2,0-0.4,0-0.5,0c0,0,0,0,0,0c-0.1,0-0.2-0.1-0.3-0.2c-0.2-0.1-0.3-0.3-0.4-0.5c-0.1-0.2-0.2-0.5-0.2-0.7c0-0.2,0-0.4,0-0.7
			c0-0.3,0.1-0.5,0.1-0.7c0-0.1,0-0.1,0-0.2c0,0,0,0,0,0c0,0,0,0,0,0c-0.2-0.1-0.5-0.1-0.7-0.2c-0.3-0.1-0.6-0.3-0.8-0.5
			c-0.2-0.1-0.4-0.3-0.5-0.5c-0.1-0.2-0.2-0.3-0.2-0.5c0-0.2,0-0.4,0.1-0.6c0.1-0.2,0.3-0.4,0.4-0.5c0.2-0.2,0.5-0.3,0.8-0.5
			c0.3-0.1,0.6-0.2,0.9-0.3c0,0,0,0,0-0.1c-0.1-0.3-0.1-0.7-0.2-1c0-0.3,0-0.6,0-0.8c0-0.2,0.1-0.4,0.2-0.6c0.1-0.2,0.3-0.4,0.6-0.5
			C17.5,5.5,17.5,5.5,17.6,5.5C17.6,5.5,17.6,5.5,17.6,5.5z M20,12.1c0.3,0,0.6,0,0.9,0c0,0,0.1,0,0.1,0c0.4-0.5,0.7-1.1,0.9-1.6
			c0,0,0,0,0-0.1c-0.3-0.6-0.6-1.1-0.9-1.6c0,0,0,0-0.1,0c-0.2,0-0.4,0-0.6,0c-0.4,0-0.9,0-1.3,0c0,0,0,0-0.1,0
			c-0.4,0.5-0.7,1.1-0.9,1.6c0,0,0,0.1,0,0.1c0.1,0.3,0.3,0.5,0.4,0.8c0.2,0.3,0.3,0.6,0.5,0.9c0,0,0,0,0.1,0c0.1,0,0.1,0,0.2,0
			C19.5,12.1,19.7,12.1,20,12.1z M25,10.3c0-0.1,0-0.1,0-0.2c0-0.1-0.1-0.2-0.2-0.3c-0.1-0.2-0.3-0.3-0.5-0.4
			c-0.4-0.2-0.8-0.4-1.2-0.5c0,0,0,0,0,0c-0.1,0.4-0.3,0.9-0.5,1.3c0,0,0,0,0,0.1c0.2,0.4,0.4,0.9,0.5,1.3c0,0,0,0,0,0
			c0.3-0.1,0.6-0.2,0.8-0.3c0.2-0.1,0.5-0.2,0.7-0.4c0.1-0.1,0.2-0.2,0.3-0.4C24.9,10.5,25,10.4,25,10.3z M16.9,9
			C16.9,9,16.9,9,16.9,9c-0.3,0.1-0.6,0.2-0.9,0.3c-0.2,0.1-0.5,0.2-0.6,0.4c-0.1,0.1-0.2,0.2-0.3,0.3c-0.1,0.2-0.1,0.4,0,0.6
			c0,0.1,0.1,0.2,0.2,0.2c0.1,0.1,0.3,0.2,0.4,0.3c0.4,0.2,0.8,0.4,1.2,0.5c0,0,0,0,0,0c0.1-0.4,0.3-0.9,0.5-1.3c0,0,0-0.1,0-0.1
			C17.3,9.9,17.1,9.4,16.9,9C17,9,17,9,16.9,9C17,9,17,9,16.9,9z M17.1,7.1c0,0.2,0,0.4,0,0.5c0,0.2,0.1,0.5,0.1,0.7c0,0,0,0,0,0
			c0.1,0,0.2,0,0.3-0.1c0.2,0,0.4-0.1,0.6-0.1c0.1,0,0.3,0,0.4,0c0,0,0.1,0,0.1-0.1c0.2-0.3,0.5-0.6,0.7-0.9
			c0.1-0.1,0.1-0.1,0.2-0.2c0,0,0,0,0,0c0,0,0,0,0,0c-0.2-0.2-0.4-0.4-0.7-0.6c-0.2-0.1-0.4-0.3-0.6-0.4C18.2,6,18,5.9,17.8,6
			c-0.2,0-0.3,0.1-0.4,0.2c-0.1,0.1-0.1,0.2-0.1,0.3C17.1,6.7,17.1,6.9,17.1,7.1z M17.1,13.6c0,0.2,0,0.3,0,0.5
			c0,0.1,0.1,0.3,0.2,0.4c0.1,0.1,0.2,0.2,0.3,0.2c0.1,0,0.3,0,0.4,0c0.2,0,0.4-0.1,0.5-0.2c0.3-0.1,0.5-0.3,0.7-0.5
			c0.1-0.1,0.2-0.2,0.3-0.3c0,0,0,0,0-0.1c0,0-0.1-0.1-0.1-0.1c-0.3-0.3-0.5-0.6-0.8-1c0,0,0,0-0.1,0c-0.2,0-0.3,0-0.5-0.1
			c-0.3,0-0.6-0.1-0.9-0.2c0,0,0,0-0.1,0c0,0.1-0.1,0.3-0.1,0.4C17.1,13,17.1,13.3,17.1,13.6z M20.3,13.7
			C20.3,13.7,20.4,13.7,20.3,13.7c0.2,0.2,0.3,0.3,0.5,0.4c0.2,0.2,0.5,0.3,0.7,0.5c0.2,0.1,0.4,0.2,0.6,0.2c0.2,0,0.4-0.1,0.6-0.3
			c0.1-0.1,0.1-0.2,0.1-0.2c0.1-0.2,0.1-0.4,0.1-0.6c0-0.2,0-0.5-0.1-0.7c0-0.2-0.1-0.4-0.1-0.5c0,0,0,0,0,0c-0.1,0-0.1,0-0.2,0
			c-0.2,0-0.5,0.1-0.7,0.1c-0.2,0-0.3,0-0.5,0.1c0,0-0.1,0-0.1,0c-0.2,0.3-0.4,0.6-0.6,0.8C20.5,13.5,20.4,13.6,20.3,13.7z
			 M22.7,8.4C22.7,8.4,22.7,8.4,22.7,8.4C22.7,8.4,22.7,8.4,22.7,8.4c0.1-0.4,0.2-0.7,0.2-1.1c0-0.2,0-0.5-0.1-0.7
			c0-0.1-0.1-0.3-0.2-0.4C22.6,6.1,22.4,6,22.3,6c-0.1,0-0.3,0-0.4,0c-0.2,0.1-0.4,0.2-0.6,0.3c-0.3,0.2-0.7,0.5-1,0.8c0,0,0,0,0,0
			c0,0,0,0,0,0c0.1,0.1,0.2,0.3,0.3,0.4c0.2,0.2,0.4,0.5,0.5,0.7c0,0,0,0,0.1,0c0.1,0,0.2,0,0.4,0c0.2,0,0.4,0.1,0.6,0.1
			C22.4,8.3,22.6,8.4,22.7,8.4z M19.4,8.1c0.4,0,0.8,0,1.3,0c-0.2-0.3-0.4-0.5-0.6-0.8C19.8,7.6,19.6,7.9,19.4,8.1z M22.2,9.8
			C22.2,9.8,22.2,9.8,22.2,9.8c0.1-0.1,0.1-0.2,0.1-0.3c0.1-0.2,0.1-0.4,0.2-0.6c0,0,0,0,0,0c-0.3-0.1-0.6-0.1-0.9-0.2c0,0,0,0,0,0
			C21.8,9,22,9.4,22.2,9.8z M22.2,10.9c-0.2,0.4-0.4,0.7-0.6,1.1c0.3,0,0.7-0.1,1-0.2C22.5,11.5,22.4,11.2,22.2,10.9z M18.4,12
			c-0.2-0.4-0.4-0.7-0.6-1.1c-0.1,0.3-0.2,0.6-0.3,0.9C17.7,11.9,18.1,12,18.4,12z M17.8,9.8C18,9.4,18.2,9,18.4,8.7
			c0,0-0.1,0-0.1,0c-0.2,0-0.3,0-0.5,0.1c-0.1,0-0.3,0-0.4,0.1c0,0,0,0,0,0c0,0,0,0,0,0c0.1,0.2,0.1,0.4,0.2,0.6
			C17.7,9.6,17.7,9.7,17.8,9.8z M19.4,12.5c0,0.1,0.5,0.7,0.6,0.8c0.1-0.1,0.6-0.7,0.6-0.8C20.2,12.6,19.8,12.6,19.4,12.5z"/>
		<path class="st1" d="M20,11.3c-0.5,0-1-0.4-1-1c0-0.5,0.4-1,1-1c0.5,0,1,0.4,1,1C21,10.9,20.5,11.3,20,11.3z"/>
	</g>
</g>
</svg>
