<?xml version="1.0" encoding="utf-8"?>
<!-- Generator: Adobe Illustrator 25.2.3, SVG Export Plug-In . SVG Version: 6.00 Build 0)  -->
<svg version="1.1" id="Layer_1" xmlns="http://www.w3.org/2000/svg" xmlns:xlink="http://www.w3.org/1999/xlink" x="0px" y="0px"
	 viewBox="0 0 40 20" style="enable-background:new 0 0 40 20;" xml:space="preserve">
<style type="text/css">
	.st0{fill:#EA9123;}
	.st1{fill:#FFFFFF;}
	.st2{enable-background:new    ;}
</style>
<rect class="st0" width="40" height="20"/>
<g>
	<g>
		<path class="st1" d="M9.2,6.9c-1.4,0-2.6-0.1-3.7-0.6C5.1,6.2,4.8,6,4.5,5.7c-0.3-0.4-0.4-0.8,0-1.1C5,4.1,5.7,3.8,6.4,3.7
			c1.8-0.4,3.7-0.4,5.5,0c0.5,0.1,1,0.3,1.5,0.6c0.8,0.5,0.8,1.2,0,1.7c-0.7,0.5-1.5,0.6-2.3,0.8C10.4,6.8,9.8,6.9,9.2,6.9z"/>
		<path class="st1" d="M4.3,9.6c2.1,1.1,4.3,1.2,6.5,1c1.1-0.1,2.1-0.4,3-0.9C14,9.5,14,9.6,14,9.7c0,0.3,0,0.7,0,1
			c0,0.4-0.2,0.6-0.5,0.8c-0.5,0.4-1.1,0.6-1.8,0.7c-1.8,0.4-3.5,0.4-5.3,0c-0.6-0.1-1.2-0.3-1.7-0.7c-0.3-0.2-0.5-0.5-0.5-0.9
			C4.3,10.3,4.3,9.9,4.3,9.6z"/>
		<path class="st1" d="M9.3,15.4c-1.5,0-2.7-0.1-3.9-0.6c-0.2-0.1-0.5-0.2-0.7-0.4c-0.3-0.2-0.5-0.5-0.5-0.9c0-0.3,0-0.6,0-0.9
			c0-0.1,0-0.2,0.2-0.1c1.2,0.7,2.6,0.9,4,1s2.8-0.1,4.2-0.5c0.4-0.1,0.7-0.3,1.1-0.5c0.2-0.1,0.2-0.1,0.2,0.1c0,0.3,0,0.7,0,1
			c0,0.5-0.4,0.8-0.8,1c-0.8,0.4-1.7,0.6-2.6,0.7C10.1,15.4,9.6,15.4,9.3,15.4z"/>
		<path class="st1" d="M4.3,6.7c1.7,1,3.5,1.2,5.4,1.1c1.4-0.1,2.9-0.3,4.1-1c0.1-0.1,0.2-0.1,0.2,0c0,0.4,0,0.7,0,1.1
			c0,0.3-0.2,0.6-0.4,0.8c-0.5,0.4-1.1,0.6-1.7,0.7c-2,0.4-4,0.4-5.9-0.2C5.4,9.1,4.8,8.9,4.4,8.5C4.3,8.3,4.3,8.2,4.3,8
			C4.3,7.6,4.3,7.1,4.3,6.7z"/>
	</g>
</g>
<g class="st2">
	<path class="st1" d="M22.3,11.4c0,0.4-0.1,1.1-0.5,1.7c-0.5,0.7-1.3,1-2.4,1c-0.9,0-1.7-0.2-2.2-0.7c-0.2-0.2-0.6-0.6-0.7-1.3
		c0-0.1,0-0.1,0.1-0.1l1.9-0.4c0.1,0,0.1,0,0.1,0.1c0.2,0.6,0.7,0.6,0.8,0.6c0.5,0,0.8-0.4,0.8-0.8c0-0.4-0.3-0.5-1.5-1l-0.1,0
		c-0.5-0.2-2-0.8-2-2.4c0-1.7,1.5-2.6,2.9-2.6c0.3,0,0.8,0,1.3,0.2c0.4,0.2,1.1,0.6,1.3,1.5c0,0.1,0,0.1-0.1,0.1l-1.8,0.4
		c0,0-0.1,0-0.1-0.1c-0.1-0.2-0.3-0.4-0.6-0.4c-0.3,0-0.7,0.2-0.7,0.6c0,0.4,0.2,0.5,1.7,1.1C21.8,9.6,22.3,10.3,22.3,11.4z"/>
	<path class="st1" d="M30.9,12.7c0,0,0,0.1,0,0.1L29.8,14c0,0-0.1,0-0.1,0l-0.5-0.5c0,0-0.1,0-0.1,0c-0.7,0.4-1.5,0.7-2.3,0.7
		c-1.2,0-2.2-0.5-3-1.3c-1.7-1.7-1.7-4.5,0-6.2c0.8-0.8,1.9-1.3,3-1.3c1.2,0,2.2,0.5,3,1.3c0.7,0.7,1.1,1.7,1.2,2.7
		c0.1,1-0.1,2-0.6,2.8c0,0,0,0.1,0,0.1L30.9,12.7z M28.4,8c-0.4-0.5-1-0.7-1.7-0.7c-0.7,0-1.3,0.3-1.8,0.8c-0.8,0.9-0.8,2.3,0,3.2
		c0.5,0.6,1.2,0.9,2,0.8c0.2,0,0.4-0.1,0.6-0.1c0.1,0,0.1-0.1,0-0.1l0,0l-0.5-0.6c0,0,0-0.1,0-0.1l1.1-1.1c0,0,0.1,0,0.1,0l0.5,0.5
		c0.1,0.1,0.1,0,0.2,0C29.2,9.6,29,8.7,28.4,8z"/>
	<path class="st1" d="M36.3,12.1l-0.2,1.7c0,0.1,0,0.1-0.1,0.1h-4.6c-0.1,0-0.1,0-0.1-0.1V5.6c0-0.1,0-0.1,0.1-0.1h1.9
		c0.1,0,0.1,0,0.1,0.1v6.3c0,0.1,0,0.1,0.1,0.1h2.6C36.3,12,36.3,12,36.3,12.1z"/>
</g>
</svg>
