<svg id="Layer_1" data-name="Layer 1" xmlns="http://www.w3.org/2000/svg" viewBox="0 0 56.78 47.55"><defs><style>.cls-1{fill:none;stroke:#000;stroke-linecap:round;stroke-miterlimit:10;stroke-width:5px;}.cls-2{fill:#5a8567;}</style></defs><path class="cls-1" d="M38.8,11.2" transform="translate(-431.36 -3.33)"/><path class="cls-1" d="M38.8,11.2" transform="translate(-431.36 -3.33)"/><path class="cls-2" d="M488.11,13.58a1.83,1.83,0,0,0-1.73-1.45H486a75.75,75.75,0,0,0-12.43,3.54c1.27-2.45,2.54-6.27,1.09-10.26a3.19,3.19,0,0,0-2.18-2,2.55,2.55,0,0,0-.82-.09,3.37,3.37,0,0,0-2,.72,10.34,10.34,0,0,0-2.82,5.17,4.37,4.37,0,0,0-2.72-1c-2.45,0-5.53,2.08-6.44,6.71h-.36c-2.91.18-8.53,2.09-9,8a6.08,6.08,0,0,0,1.27,4.62,4.9,4.9,0,0,0,1.27.91c0,.09-.18.18-.36.27s-.64.46-.64.46h0c-2.81,2.17-5.53,4.53-8.25,7.08a85.06,85.06,0,0,1-2.09-11.8c-.91-8.44-.27-13.52.36-14.79,1,.63,3.54,4.53,5.63,10.07a1.77,1.77,0,0,0,1.72,1.18,1.58,1.58,0,0,0,.64-.09,2,2,0,0,0,1-.91,2.35,2.35,0,0,0,.09-1.36c-1.73-4.72-5.27-12.52-9.26-12.52h-.45q-2.18.41-3,3.26c-1.45,5-.63,19.33,2.45,29.95a81.63,81.63,0,0,0-7.08,8.08,1.79,1.79,0,0,0-.27,1.36,2.07,2.07,0,0,0,.73,1.18,2.21,2.21,0,0,0,1.09.36,1.88,1.88,0,0,0,1.45-.73,80.1,80.1,0,0,1,5.44-6.35A16.12,16.12,0,0,0,444,49.51a5.11,5.11,0,0,0,3.35,1.37,5,5,0,0,0,1.91-.46c.91-.36,8.89-4,4.17-19.24a94.71,94.71,0,0,1,11.26-7.26,41.39,41.39,0,0,0-.37,9.71c.46,5.72,2,8.72,4.63,9.26.18,0,.36.09.54.09a3,3,0,0,0,1.73-.54,3.37,3.37,0,0,0,1.27-2c.36-2.27.63-7.71-2-19.42a73.48,73.48,0,0,1,16.25-5.17A2.1,2.1,0,0,0,488.11,13.58ZM447.91,47h-.09a4.16,4.16,0,0,1-.46.09c-.63,0-1.54-.72-2.36-2.08a27.62,27.62,0,0,1-2.17-4.81c2.45-2.36,4.9-4.63,7.53-6.81C453.35,44.7,448.09,46.88,447.91,47Zm7.89-23.86a3.45,3.45,0,0,1-2.9,2.18h-.09c-.27,0-.46,0-.55-.19a3.61,3.61,0,0,1-.36-1.81c.18-2.91,2.54-4,4.17-4.45A6.64,6.64,0,0,1,455.8,23.11Zm7.35-3.63a3.88,3.88,0,0,1-1.09.18,3.18,3.18,0,0,1-.54-.09c-.27-.18-.55-.82-.45-2,.09-4.44,2.35-5.81,3.08-5.81.55,0,1.09.82,1.36,2.09A5.33,5.33,0,0,1,463.15,19.48Zm5.81,19a13.69,13.69,0,0,1-1.09-5.17,41.65,41.65,0,0,1,0-6.71C469.05,32.73,469.14,36.36,469,38.44Zm1.09-23.86a8.25,8.25,0,0,1,0-3,10.42,10.42,0,0,1,1.45-4.26C472.23,10.22,471,13,470.05,14.58Z" transform="translate(-431.36 -3.33)"/></svg>