<?xml version="1.0" encoding="utf-8"?>
<!-- Generator: Adobe Illustrator 25.2.3, SVG Export Plug-In . SVG Version: 6.00 Build 0)  -->
<svg version="1.1" id="Layer_1" xmlns="http://www.w3.org/2000/svg" xmlns:xlink="http://www.w3.org/1999/xlink" x="0px" y="0px"
	 viewBox="0 0 832.1 54.1" style="enable-background:new 0 0 832.1 54.1;" xml:space="preserve">
<style type="text/css">
	.st0{fill:#FFFFFF;}
	.st1{fill:none;stroke:#000000;stroke-width:5;stroke-linecap:round;stroke-miterlimit:10;}
	.st2{fill:#5A8567;}
</style>
<rect class="st0" width="832.1" height="54.1"/>
<g>
	<path class="st1" d="M38.8,11.2"/>
	<path class="st1" d="M38.8,11.2"/>
</g>
<g>
	<path class="st2" d="M488.1,13.6c-0.2-0.8-0.9-1.5-1.7-1.5c-0.1,0-0.2,0-0.4,0c-4.2,0.8-8.3,2-12.4,3.5c1.3-2.5,2.5-6.3,1.1-10.3
		c-0.4-1-1.2-1.7-2.2-2c-0.3-0.1-0.5-0.1-0.8-0.1c-0.7,0-1.4,0.3-2,0.7c-1.2,1-2.2,2.8-2.8,5.2c-0.8-0.6-1.7-1-2.7-1
		c-2.5,0-5.5,2.1-6.4,6.7h-0.4c-2.9,0.2-8.5,2.1-9,8c-0.1,0.7-0.2,3.1,1.3,4.6c0.3,0.3,0.7,0.6,1.3,0.9c0,0.1-0.2,0.2-0.4,0.3
		c-0.3,0.2-0.6,0.5-0.6,0.5l0,0c-2.8,2.2-5.5,4.5-8.3,7.1c-0.9-3.5-1.6-7.6-2.1-11.8c-0.9-8.4-0.3-13.5,0.4-14.8
		c1,0.6,3.5,4.5,5.6,10.1c0.3,0.7,0.9,1.2,1.7,1.2c0.2,0,0.5,0,0.6-0.1c0.5-0.2,0.8-0.5,1-0.9c0.2-0.5,0.2-0.9,0.1-1.4
		c-1.7-4.7-5.3-12.5-9.3-12.5c-0.2,0-0.3,0-0.5,0c-1.5,0.3-2.5,1.4-3,3.3c-1.5,5-0.6,19.3,2.5,29.9c-4.6,4.7-7.1,8.1-7.1,8.1
		c-0.3,0.4-0.4,0.9-0.3,1.4c0.1,0.5,0.4,0.9,0.7,1.2c0.3,0.2,0.7,0.4,1.1,0.4c0.5,0,1.1-0.3,1.5-0.7s2.2-2.9,5.4-6.4
		c1.2,3,2.5,5.1,3.9,6.4c1.1,0.9,2.2,1.4,3.4,1.4c0.6,0,1.3-0.2,1.9-0.5c0.9-0.4,8.9-4,4.2-19.2c3.6-2.7,7.4-5.2,11.3-7.3
		c-0.5,2.8-0.6,6.1-0.4,9.7c0.5,5.7,2,8.7,4.6,9.3c0.2,0,0.4,0.1,0.5,0.1c0.6,0,1.2-0.2,1.7-0.5c0.6-0.5,1.1-1.2,1.3-2
		c0.4-2.3,0.6-7.7-2-19.4c5.4-2.4,10.8-4.2,16.2-5.2C487.7,15.5,488.3,14.6,488.1,13.6z M447.9,47L447.9,47c-0.2,0-0.4,0.1-0.5,0.1
		c-0.6,0-1.5-0.7-2.4-2.1c-0.7-1.2-1.5-2.8-2.2-4.8c2.5-2.4,4.9-4.6,7.5-6.8C453.4,44.7,448.1,46.9,447.9,47z M455.8,23.1
		c-0.5,1.3-1.6,2.1-2.9,2.2h-0.1c-0.3,0-0.5,0-0.5-0.2c-0.3-0.3-0.4-1.3-0.4-1.8c0.2-2.9,2.5-4,4.2-4.4
		C456.4,20.5,456.3,21.8,455.8,23.1z M463.2,19.5c-0.3,0.1-0.7,0.2-1.1,0.2c-0.3,0-0.5-0.1-0.5-0.1c-0.3-0.2-0.5-0.8-0.5-2
		c0.1-4.4,2.4-5.8,3.1-5.8c0.5,0,1.1,0.8,1.4,2.1C466,16.1,465,18.4,463.2,19.5z M469,38.4c-0.4-0.7-0.9-2.3-1.1-5.2
		c-0.2-2.5-0.2-4.7,0-6.7C469.1,32.7,469.1,36.4,469,38.4z M470,14.6c-0.2-0.6-0.2-1.8,0-3c0.4-2.3,1-3.6,1.5-4.3
		C472.2,10.2,471,13,470,14.6z"/>
</g>
</svg>
