<?xml version="1.0" encoding="utf-8"?>
<!-- Generator: Adobe Illustrator 25.2.3, SVG Export Plug-In . SVG Version: 6.00 Build 0)  -->
<svg version="1.1" id="Layer_1" xmlns="http://www.w3.org/2000/svg" xmlns:xlink="http://www.w3.org/1999/xlink" x="0px" y="0px"
	 viewBox="0 0 40 20" style="enable-background:new 0 0 40 20;" xml:space="preserve">
<style type="text/css">
	.st0{fill:#EF3635;}
	.st1{enable-background:new    ;}
	.st2{fill:#FFFFFF;}
</style>
<rect class="st0" width="40" height="20"/>
<g class="st1">
	<path class="st2" d="M5.7,9.3c0,0.5-0.1,0.9-0.4,1.3c-0.2,0.4-0.6,0.7-1,0.9c-0.3,0.1-0.5,0.2-1.2,0.2H1.6c0,0-0.1,0-0.1-0.1V6.9
		c0,0,0-0.1,0.1-0.1H3C3.7,6.8,4,6.9,4.2,7C5.1,7.4,5.7,8.3,5.7,9.3z M4.4,9.2c0-1.3-1.3-1.3-1.6-1.3c0,0-0.1,0-0.1,0.1v2.5
		c0,0,0,0.1,0.1,0.1h0.1c0.5,0,1-0.1,1.2-0.4C4.3,10,4.4,9.6,4.4,9.2z"/>
	<path class="st2" d="M7,8v4c0,0.8-0.7,0.9-1,1c0,0-0.1,0-0.2,0c-0.2,0-0.4,0-0.5,0c0,0-0.1,0-0.1-0.1l0.1-0.9c0,0,0-0.1,0.1-0.1
		h0.1c0.1,0,0.2,0,0.2-0.1c0.1-0.1,0.1-0.2,0.1-0.4l0,0l0-3.5c0,0,0-0.1,0.1-0.1L7,8C7,8,7,8,7,8z M7,6.9v0.8c0,0,0,0.1-0.1,0.1h-1
		c0,0-0.1,0-0.1-0.1V6.9c0,0,0-0.1,0.1-0.1L7,6.9C7,6.8,7,6.8,7,6.9z"/>
	<path class="st2" d="M11.3,8v3.6c0,0,0,0.1-0.1,0.1h-1c0,0-0.1,0-0.1-0.1v-0.1c0,0,0,0,0,0c-0.3,0.2-0.6,0.3-1,0.3
		c-1.1,0-2-0.9-2-1.9c0-1.1,0.9-1.9,2-1.9c0.3,0,0.7,0.1,1,0.3c0,0,0,0,0,0V8c0,0,0-0.1,0.1-0.1L11.3,8C11.3,8,11.3,8,11.3,8z
		 M10.2,9.9C10.2,9.4,9.8,9,9.3,9S8.4,9.4,8.4,9.9c0,0.5,0.4,0.9,0.9,0.9S10.2,10.4,10.2,9.9z"/>
	<path class="st2" d="M15,9.5v2.1c0,0,0,0.1-0.1,0.1h-1.1c0,0-0.1,0-0.1-0.1v-2c0-0.1,0-0.3-0.1-0.4c0-0.1-0.1-0.1-0.1-0.1
		C13.6,9,13.5,9,13.4,9C13.2,9,13,9,12.9,9.2c-0.1,0.1-0.1,0.3-0.1,0.4v2c0,0,0,0.1-0.1,0.1h-1.1c0,0-0.1,0-0.1-0.1V8
		c0,0,0-0.1,0.1-0.1h1c0,0,0.1,0,0.1,0.1v0.1c0,0,0,0,0,0c0.8-0.6,1.6,0.1,1.7,0.1c0,0,0.1,0,0.1,0.1C15,8.7,15,9,15,9.5z"/>
	<path class="st2" d="M19.3,8.1V11l0,0.4c0,1.3-0.7,2-1.9,2l0,0c0,0,0,0,0,0c-0.3,0-1,0-1.8-0.8c0,0,0-0.1,0-0.1l0.8-0.6
		c0,0,0.1,0,0.1,0c0.2,0.2,0.5,0.5,1,0.4c0.3,0,0.6-0.1,0.7-0.3c0.1-0.1,0.1-0.3,0.1-0.4c0,0,0,0,0,0c-0.3,0.2-0.6,0.3-1,0.3
		c-1.1,0-2-0.9-2-1.9c0-1.1,0.9-1.9,2-1.9c0.3,0,0.7,0.1,1,0.3c0,0,0,0,0,0V8.1c0,0,0-0.1,0.1-0.1L19.3,8.1C19.3,8,19.3,8,19.3,8.1z
		 M18.2,9.9c0-0.1,0-0.2-0.1-0.3C18,9.2,17.7,9,17.3,9c-0.5,0-0.9,0.4-0.9,0.9c0,0.5,0.4,0.9,0.9,0.9h0c0,0,0,0,0,0
		C17.8,10.8,18.2,10.4,18.2,9.9z"/>
	<path class="st2" d="M23.4,9.9c0,1.1-0.9,1.9-2,1.9c-1.1,0-2-0.9-2-1.9c0-1.1,0.9-1.9,2-1.9C22.6,7.9,23.4,8.8,23.4,9.9z M22.3,9.9
		c0-0.5-0.4-0.8-0.9-0.8s-0.9,0.4-0.9,0.8s0.4,0.8,0.9,0.8S22.3,10.3,22.3,9.9z"/>
	<path class="st2" d="M28.2,11.6C28.2,11.7,28.1,11.7,28.2,11.6l-1.3,0.1c0,0,0,0-0.1,0l-0.6-1.5c0,0,0,0-0.1,0h-0.2
		c0,0-0.1,0-0.1,0.1v1.4c0,0,0,0.1-0.1,0.1h-1.1c0,0-0.1,0-0.1-0.1V6.8c0,0,0-0.1,0.1-0.1h1.5c0.9,0,1.2,0.1,1.5,0.4
		c0.4,0.3,0.6,0.8,0.6,1.3c0,0.5-0.2,1-0.5,1.3c-0.1,0.1-0.2,0.1-0.3,0.2c0,0,0,0,0,0.1L28.2,11.6z M27,8.5c0-0.2-0.1-0.4-0.3-0.5
		c-0.2-0.1-0.4-0.1-0.5-0.1h-0.3c0,0-0.1,0-0.1,0.1v1c0,0,0,0.1,0.1,0.1h0.4c0.1,0,0.3,0,0.5-0.1C27,8.9,27,8.6,27,8.5z"/>
	<path class="st2" d="M32.2,9.9c0,0.1,0,0.2,0,0.3c0,0,0,0-0.1,0h-2.6c0,0-0.1,0.1-0.1,0.1c0.2,0.3,0.4,0.4,0.8,0.4
		c0.3,0,0.5-0.1,0.7-0.3c0,0,0,0,0.1,0l1,0.2c0,0,0.1,0,0,0.1c0,0-0.1,0.1-0.1,0.1l0,0l0,0c0,0,0,0.1,0,0.1c0,0,0,0.1-0.1,0.1l0,0h0
		c0,0,0,0,0,0l0,0c0,0,0,0,0,0l0,0c0,0,0,0-0.1,0.1l0,0c0,0,0,0,0,0l0,0c0,0,0,0-0.1,0l0,0l0,0l0,0c0,0-0.1,0-0.1,0.1l0,0
		c0,0-0.1,0-0.1,0.1l0,0c0,0-0.1,0-0.1,0.1l0,0c0,0,0,0,0,0l0,0c0,0,0,0,0,0l0,0c0,0-0.1,0-0.1,0l0,0c0,0,0,0-0.1,0l0,0
		c0,0,0,0-0.1,0l0,0c0,0-0.1,0-0.1,0l0,0c-0.1,0-0.1,0-0.2,0l0,0c-0.1,0-0.1,0-0.2,0h0c0,0-0.1,0-0.1,0c0,0-0.1,0-0.1,0c0,0,0,0,0,0
		l0,0c0,0,0,0-0.1,0l0,0c0,0,0,0,0,0c0,0-0.1,0-0.1,0h0h0l0,0c0,0,0,0-0.1,0l0,0c0,0,0,0-0.1,0l0,0c0,0,0,0,0,0c0,0-0.1,0-0.1,0
		c0,0-0.1,0-0.1,0c0,0,0,0,0,0l0,0c0,0,0,0-0.1,0l0,0c0,0,0,0,0,0c0,0-0.1,0-0.1,0l0,0c0,0,0,0-0.1,0c0,0,0,0,0,0l0,0c0,0,0,0-0.1,0
		l0,0c0,0,0,0-0.1,0c-0.2-0.2-0.4-0.4-0.6-0.6c0,0,0,0,0-0.1l0,0c0,0,0,0,0-0.1l0,0c0,0,0,0,0,0c0-0.1-0.1-0.2-0.1-0.2
		c0,0,0-0.1,0-0.1c0,0,0-0.1,0-0.1c0-0.1,0-0.2,0-0.3c0,0,0-0.1,0-0.1c0,0,0-0.1,0-0.1c0-0.2,0-0.3,0.1-0.5c0-0.1,0-0.1,0.1-0.1
		c0,0,0-0.1,0-0.1c0,0,0,0,0,0l0,0c0,0,0,0,0,0c0,0,0,0,0,0l0,0c0,0,0,0,0-0.1c0.1-0.2,0.3-0.4,0.6-0.6c0,0,0,0,0.1,0l0,0
		c0,0,0,0,0.1,0l0,0c0,0,0,0,0,0c0,0,0.1,0,0.1,0c0,0,0.1,0,0.1,0c0,0,0,0,0,0l0,0c0,0,0,0,0.1,0l0,0c0,0,0,0,0,0c0,0,0.1,0,0.1,0
		c0,0,0.1,0,0.1,0c0,0,0,0,0,0l0,0c0,0,0,0,0.1,0l0,0c0,0,0.1,0,0.1,0l0,0c0,0,0,0,0,0h0c0,0,0.1,0,0.1,0c0,0,0,0,0,0l0,0
		c0,0,0,0,0.1,0l0,0c0,0,0,0,0,0c0,0,0.1,0,0.1,0c0,0,0.1,0,0.1,0l0,0c0.1,0,0.1,0,0.2,0l0,0c0.1,0,0.1,0,0.2,0l0,0c0,0,0.1,0,0.1,0
		l0,0c0,0,0,0,0.1,0c0,0,0,0,0,0c0,0,0,0,0.1,0l0,0c0,0,0.1,0,0.1,0l0,0c0,0,0,0,0,0l0,0l0,0l0,0c0,0,0,0,0,0c0,0,0.1,0.1,0.1,0.1
		l0,0c0,0,0.1,0,0.1,0.1l0,0c0,0,0,0,0,0c0,0,0.1,0,0.1,0.1l0,0c0,0,0,0,0.1,0.1l0,0c0,0,0,0,0,0l0,0c0,0,0,0,0.1,0.1l0,0l0,0l0,0
		c0,0,0,0,0,0l0,0c0,0,0,0,0,0.1l0,0c0,0,0,0,0,0l0,0c0,0,0,0,0,0l0,0.1C32,9,32,9.2,32.1,9.3C32.1,9.5,32.2,9.7,32.2,9.9z M31,9.4
		c0-0.3-0.4-0.5-0.8-0.5c-0.4,0-0.7,0.2-0.8,0.5c0,0,0,0.1,0.1,0.1L31,9.4C31,9.4,31,9.4,31,9.4z"/>
	<path class="st2" d="M35.2,10.6c0,0.1,0,0.3-0.1,0.4c-0.2,0.5-0.7,0.8-1.4,0.8c-0.1,0-0.2,0-0.3,0c-0.3,0-0.5-0.1-0.7-0.2
		c-0.2-0.1-0.4-0.3-0.5-0.6c0,0,0-0.1,0-0.1l1-0.2c0,0,0,0,0.1,0c0.1,0.1,0.2,0.2,0.3,0.2c0.2,0,0.2,0,0.3-0.1c0,0,0.1-0.1,0.1-0.1
		c0-0.1-0.1-0.2-0.5-0.4l0,0c-0.1,0-0.2-0.1-0.3-0.1C33.1,10,33,10,32.9,10l0,0c0,0,0,0,0,0c-0.4-0.2-0.6-0.4-0.6-0.7
		c-0.1-0.4,0.2-0.7,0.2-0.8c0.1-0.1,0.2-0.2,0.3-0.2c0.3-0.2,0.7-0.3,1.1-0.2c0.2,0,0.5,0.1,0.7,0.2c0.1,0,0.2,0.1,0.3,0.2
		c0.1,0,0.2,0.2,0.3,0.5c0,0,0,0.1,0,0.1l-1,0.2c0,0-0.1,0-0.1,0c0-0.1-0.1-0.1-0.2-0.2c-0.1,0-0.2,0-0.2,0.1c0,0-0.1,0.1,0,0.1
		c0,0.1,0.1,0.2,0.5,0.3c0.1,0,0.1,0.1,0.2,0.1c0.1,0,0.2,0.1,0.2,0.1l0,0C34.7,9.7,35.2,10,35.2,10.6z"/>
	<path class="st2" d="M37.5,10.8l-0.1,0.9c0,0,0,0-0.1,0.1c-0.1,0-0.5,0-0.6,0c0,0,0,0,0,0c-0.6,0-1-0.4-1-0.9V9c0,0,0-0.1-0.1-0.1
		h-0.4c0,0-0.1,0-0.1-0.1V8c0,0,0-0.1,0.1-0.1h0.4c0,0,0.1,0,0.1-0.1v-1c0,0,0-0.1,0.1-0.1h1c0,0,0.1,0,0.1,0.1v1c0,0,0,0.1,0.1,0.1
		h0.4c0,0,0.1,0,0.1,0.1v0.9c0,0,0,0.1-0.1,0.1H37c0,0-0.1,0-0.1,0.1c0,0.3,0,1.2,0,1.2l0,0c0,0.1,0,0.3,0.1,0.4
		c0.1,0.1,0.1,0.1,0.2,0.1L37.5,10.8C37.5,10.7,37.5,10.8,37.5,10.8z"/>
</g>
</svg>
