<?xml version="1.0" encoding="utf-8"?>
<!-- Generator: Adobe Illustrator 25.2.3, SVG Export Plug-In . SVG Version: 6.00 Build 0)  -->
<svg version="1.1" id="Layer_1" xmlns="http://www.w3.org/2000/svg" xmlns:xlink="http://www.w3.org/1999/xlink" x="0px" y="0px"
	 viewBox="0 0 40 20" style="enable-background:new 0 0 40 20;" xml:space="preserve">
<style type="text/css">
	.st0{fill:#72BF48;}
	.st1{fill:#FFFFFF;}
</style>
<rect class="st0" width="40" height="20"/>
<g>
	<g>
		<path class="st1" d="M10.5,12.8c0.2,0,0.4-0.1,0.6-0.1c0.3-0.1,0.7-0.2,1-0.4c0.4-0.3,0.8-0.6,1-1.1c0.3-0.7,0.3-1.4,0.2-2.1
			c-0.1-0.4-0.2-0.7-0.5-0.9c0-0.1-0.1-0.1,0-0.2c0.2-0.5,0.1-1-0.1-1.5c0,0-0.1-0.1-0.1-0.1c-0.2,0-0.5,0-0.7,0.1
			c-0.3,0.1-0.6,0.3-0.9,0.5c0,0-0.1,0-0.2,0c-0.6-0.2-1.3-0.2-2-0.2C8.5,7,8.2,7,7.9,7.1c-0.1,0-0.1,0-0.2,0C7.3,6.8,7,6.6,6.5,6.5
			c-0.1,0-0.2,0-0.4,0c0,0-0.1,0-0.1,0.1C5.9,7,5.9,7.5,6,8c0,0,0,0.1,0,0.1c-0.5,0.6-0.6,1.3-0.6,2c0,0.3,0.1,0.6,0.2,0.9
			c0.3,0.8,0.8,1.3,1.6,1.5c0.3,0.1,0.6,0.1,0.9,0.2c0,0,0.1,0,0.1,0c0,0,0,0,0,0C8,13,7.9,13.3,7.8,13.5c0,0.1,0,0.1-0.1,0.1
			c-0.4,0.1-0.8,0.2-1.2,0c-0.2-0.1-0.4-0.3-0.5-0.5c-0.2-0.3-0.5-0.5-0.8-0.6c-0.1,0-0.2,0-0.3,0c-0.1,0-0.1,0.1-0.1,0.2
			c0,0.1,0.1,0.1,0.2,0.2c0.3,0.2,0.5,0.5,0.7,0.9c0.2,0.6,0.6,0.8,1.2,0.9c0.3,0,0.5,0,0.8,0c0,0,0,0,0.1,0c0,0.2,0,0.3,0,0.5
			c0,0.2,0,0.4,0,0.6c0,0.3-0.2,0.4-0.5,0.3c-0.8-0.3-1.6-0.7-2.2-1.4c-1-0.9-1.6-2.1-1.8-3.5C3,8.6,3.8,6.6,5.7,5.1
			c1.1-0.9,2.4-1.3,3.9-1.2c2.1,0.1,3.7,1,4.8,2.7c0.6,0.8,0.9,1.8,1,2.8c0.2,2-0.5,3.7-1.9,5.1c-0.6,0.6-1.4,1-2.2,1.3
			c-0.3,0.1-0.5,0-0.5-0.3c0-0.5,0-1.1,0-1.6c0-0.3,0-0.6-0.2-0.9C10.6,13,10.5,12.9,10.5,12.8z"/>
		<path class="st1" d="M20.1,10.5c-0.2,0-0.4,0-0.6,0c-0.1,0-0.1,0-0.1-0.1c0-0.2,0-0.5,0-0.7c0-0.1,0-0.1,0.1-0.1c0.5,0,1,0,1.5,0
			c0.1,0,0.1,0,0.1,0.1c0,0.8,0,1.6,0,2.4c0,0.1,0,0.1-0.1,0.2c-0.5,0.3-1,0.4-1.6,0.3c-0.3,0-0.7-0.1-1-0.2c-0.5-0.2-0.9-0.6-1-1.2
			c-0.2-0.5-0.2-1-0.2-1.5c0-0.4,0.1-0.8,0.2-1.1c0.3-0.8,0.8-1.2,1.6-1.3c0.5-0.1,1,0,1.5,0.1C21,7.5,21,7.5,20.9,7.8
			c0,0.2-0.1,0.4-0.1,0.5c0,0.1,0,0.1-0.2,0.1c-0.4-0.1-0.8-0.2-1.2-0.1c-0.4,0.1-0.7,0.3-0.8,0.7c-0.2,0.6-0.2,1.2,0,1.8
			c0.1,0.5,0.5,0.7,0.9,0.7c0.2,0,0.3,0,0.5,0c0,0,0.1,0,0.1-0.1C20.1,11.1,20.1,10.8,20.1,10.5z"/>
		<path class="st1" d="M27,9.3c0.5,0,0.9,0,1.4,0c0,0,0-0.1,0-0.1c0-0.5,0-1,0-1.6c0-0.2,0-0.2,0.2-0.2c0.3,0,0.5,0,0.8,0
			c0.1,0,0.1,0,0.1,0.1c0,1.6,0,3.1,0,4.7c0,0.1,0,0.1-0.1,0.1c-0.3,0-0.5,0-0.8,0c-0.1,0-0.1,0-0.1-0.1c0-0.6,0-1.2,0-1.9
			c0,0,0-0.1,0-0.1c-0.5,0-0.9,0-1.4,0c0,0,0,0.1,0,0.1c0,0.6,0,1.2,0,1.9c0,0.1,0,0.2-0.2,0.2c-0.3,0-0.5,0-0.8,0
			c-0.1,0-0.1,0-0.1-0.1c0-1.6,0-3.2,0-4.7c0-0.1,0-0.1,0.1-0.1c0.3,0,0.5,0,0.8,0c0.1,0,0.1,0,0.1,0.1c0,0.5,0,1.1,0,1.6
			C27,9.2,27,9.3,27,9.3z"/>
		<path class="st1" d="M34.6,9.2C34.8,9.1,35,9,35.2,9c0.4-0.1,0.8-0.1,1.1,0.2c0.2,0.2,0.4,0.4,0.4,0.7c0.1,0.6,0.1,1.2,0,1.8
			c-0.2,0.6-0.5,0.9-1.2,0.9c-0.4,0-0.8-0.1-1.1-0.3c0,0,0,0.1,0,0.1c0,0.2,0,0.2-0.2,0.2c-0.2,0-0.3,0-0.5,0c-0.1,0-0.2,0-0.2-0.2
			c0-1.3,0-2.6,0-3.9c0-0.3,0-0.5,0-0.8c0-0.1,0-0.1,0.1-0.1c0.3,0,0.5,0,0.8,0c0.1,0,0.1,0,0.1,0.1C34.6,8.1,34.6,8.6,34.6,9.2z
			 M34.6,10.8c0,0.2,0,0.5,0,0.7c0,0.1,0,0.1,0.1,0.1c0.2,0.1,0.4,0.1,0.6,0.1c0.2,0,0.3-0.1,0.4-0.3c0-0.2,0.1-0.3,0.1-0.5
			c0-0.2,0-0.5-0.1-0.7c-0.1-0.2-0.2-0.2-0.4-0.3c-0.2,0-0.4,0-0.6,0.1c-0.1,0-0.1,0.1-0.1,0.1C34.6,10.3,34.6,10.5,34.6,10.8z"/>
		<path class="st1" d="M32.3,12.2c-0.2,0.1-0.3,0.1-0.5,0.2c-0.4,0.1-0.8,0.1-1.1,0.1c-0.4-0.1-0.6-0.4-0.7-0.8c0-0.1,0-0.3,0-0.4
			c0-0.7,0-1.4,0-2.1c0-0.1,0-0.1,0.1-0.1c0.3,0,0.5,0,0.8,0c0.1,0,0.1,0,0.1,0.1c0,0.6,0,1.3,0,1.9c0,0.1,0,0.2,0,0.3
			c0,0.2,0.1,0.3,0.3,0.3c0.2,0,0.4,0,0.6-0.1c0.1,0,0.1-0.1,0.1-0.1c0-0.7,0-1.5,0-2.2c0-0.2,0-0.2,0.2-0.2c0.3,0,0.5,0,0.8,0
			c0.1,0,0.1,0,0.1,0.1c0,1,0,2.1,0,3.1c0,0.1,0,0.1-0.1,0.1c-0.1,0-0.3,0-0.4,0C32.3,12.5,32.3,12.5,32.3,12.2
			C32.3,12.3,32.3,12.3,32.3,12.2z"/>
		<path class="st1" d="M24.7,9.1c0.2,0,0.4,0,0.6,0c0.1,0,0.1,0,0.1,0.1c0,0.2,0,0.4,0,0.7c0,0.1,0,0.1-0.1,0.1c-0.2,0-0.4,0-0.6,0
			c0,0,0,0.1,0,0.1c0,0.4,0,0.8,0,1.2c0,0.3,0.1,0.4,0.4,0.4c0.1,0,0.2,0,0.2,0c0.1,0,0.1,0,0.1,0.1c0,0.2,0,0.4,0,0.6
			c0,0.1,0,0.1-0.1,0.1c-0.4,0.1-0.7,0.1-1.1,0c-0.4-0.1-0.7-0.5-0.7-0.9c0-0.5,0-1,0-1.5c0,0,0-0.1,0-0.1c-0.2,0-0.3,0-0.4,0
			c-0.1,0-0.1,0-0.1-0.1c0-0.2,0-0.3,0-0.5c0-0.1,0-0.1,0.1-0.1c0.1,0,0.2-0.1,0.3-0.1c0.1,0,0.1-0.1,0.1-0.2c0-0.3,0-0.5,0-0.8
			c0-0.1,0-0.1,0.1-0.1c0.3,0,0.5,0,0.8,0c0.1,0,0.1,0,0.1,0.1c0,0.2,0,0.5,0,0.7C24.7,9,24.7,9,24.7,9.1z"/>
		<path class="st1" d="M22.7,10.8c0,0.5,0,1,0,1.5c0,0,0,0.1,0,0.1c0,0.1,0,0.1-0.1,0.1c-0.3,0-0.5,0-0.8,0c-0.1,0-0.1,0-0.1-0.2
			c0-0.3,0-0.5,0-0.8c0-0.8,0-1.5,0-2.3c0-0.2,0-0.2,0.2-0.2c0.2,0,0.5,0,0.7,0c0.2,0,0.2,0,0.2,0.2C22.7,9.7,22.7,10.2,22.7,10.8
			C22.7,10.8,22.7,10.8,22.7,10.8z"/>
		<path class="st1" d="M22.2,8.8c-0.3,0-0.6-0.3-0.6-0.6c0-0.3,0.3-0.6,0.6-0.6c0.3,0,0.6,0.3,0.6,0.6C22.8,8.5,22.5,8.8,22.2,8.8z"
			/>
	</g>
</g>
</svg>
