<?xml version="1.0" encoding="utf-8"?>
<!-- Generator: Adobe Illustrator 25.2.3, SVG Export Plug-In . SVG Version: 6.00 Build 0)  -->
<svg version="1.1" id="Layer_1" xmlns="http://www.w3.org/2000/svg" xmlns:xlink="http://www.w3.org/1999/xlink" x="0px" y="0px"
	 viewBox="0 0 40 20" style="enable-background:new 0 0 40 20;" xml:space="preserve">
<style type="text/css">
	.st0{fill:#4A2F8C;}
	.st1{fill:#FFFFFF;}
</style>
<rect class="st0" width="40" height="20"/>
<g>
	<g>
		<path class="st1" d="M12.5,10.4c0,1.1,0,2.2,0,3.4c0,0.5-0.3,0.8-0.8,0.8c-2,0-3.9,0-5.9,0c-0.6,0-0.9-0.3-0.9-0.9
			c0-2.2,0-4.5,0-6.7c0-0.5,0.3-0.8,0.8-0.8c2,0,4,0,6,0c0.5,0,0.8,0.3,0.8,0.8C12.5,8.1,12.5,9.3,12.5,10.4z M12.1,10.4
			c0-1.1,0-2.3,0-3.4c0-0.1,0-0.2-0.1-0.3c-0.1-0.1-0.2-0.1-0.4-0.1c-1.4,0-2.7,0-4.1,0c-0.6,0-1.2,0-1.8,0C5.5,6.6,5.3,6.7,5.3,7
			c0,2.3,0,4.5,0,6.8c0,0.3,0.1,0.4,0.4,0.4c2,0,4,0,6,0c0.3,0,0.4-0.1,0.4-0.4C12.1,12.7,12.1,11.5,12.1,10.4z"/>
		<path class="st1" d="M28,10.5c0,0.8-0.4,1.4-1.2,1.6c-0.9,0.2-1.8-0.3-1.9-1.5c0-0.5,0.1-1,0.5-1.4c0.5-0.4,1.1-0.5,1.7-0.3
			c0.6,0.2,0.8,0.7,0.9,1.3C28,10.3,28,10.4,28,10.5z M27.1,10.4c0-0.2,0-0.4-0.1-0.5c-0.1-0.2-0.3-0.4-0.6-0.4
			c-0.3,0-0.5,0.1-0.6,0.4c-0.2,0.4-0.2,0.8,0,1.1c0.1,0.2,0.3,0.4,0.6,0.4c0.3,0,0.5-0.1,0.6-0.4C27.1,10.9,27.1,10.7,27.1,10.4z"
			/>
		<path class="st1" d="M17.2,10.5c0,0.5,0,0.9,0,1.4c0,0.1,0,0.2-0.2,0.2c-0.2,0-0.4,0-0.6,0c-0.1,0-0.1,0-0.1-0.1c0-0.3,0-0.7,0-1
			c0-0.1,0-0.1-0.1-0.1c-0.3,0-0.5,0-0.8,0c-0.1,0-0.1,0-0.1,0.1c0,0.3,0,0.7,0,1c0,0.1,0,0.1-0.1,0.1c-0.2,0-0.4,0-0.6,0
			c-0.1,0-0.1,0-0.1-0.1c0-1,0-1.9,0-2.9c0-0.1,0-0.1,0.1-0.1c0.2,0,0.4,0,0.6,0c0.1,0,0.1,0,0.1,0.1c0,0.3,0,0.6,0,0.9
			c0,0.1,0,0.1,0.1,0.1c0.3,0,0.5,0,0.8,0c0.1,0,0.1,0,0.1-0.1c0-0.3,0-0.6,0-0.9c0-0.1,0-0.1,0.1-0.1c0.2,0,0.4,0,0.6,0
			c0.1,0,0.2,0,0.2,0.2C17.2,9.6,17.2,10,17.2,10.5z"/>
		<path class="st1" d="M24,12.1c-0.3,0-0.5,0-0.8,0c-0.1,0-0.1,0-0.1-0.1c-0.2-0.3-0.3-0.6-0.5-0.9c0-0.1-0.1-0.1-0.2-0.1
			c-0.1,0-0.1,0-0.1,0.1c0,0.3,0,0.5,0,0.8c0,0.1,0,0.1-0.1,0.1c-0.2,0-0.4,0-0.6,0c-0.1,0-0.1,0-0.1-0.1c0-1,0-1.9,0-2.9
			c0-0.1,0-0.1,0.1-0.1c0.5,0,1,0,1.4,0c0.5,0,0.9,0.3,0.9,0.7c0.1,0.4,0,1-0.5,1.2c-0.1,0,0,0.1,0,0.1c0.2,0.3,0.3,0.6,0.5,0.9
			C24,11.9,24,12,24,12.1z M22.3,10c0,0.1,0,0.2,0,0.3c0,0.1,0,0.1,0.1,0.1c0.2,0,0.3,0,0.5,0c0.2,0,0.3-0.2,0.3-0.4
			c0-0.2-0.2-0.3-0.5-0.3C22.3,9.6,22.3,9.6,22.3,10z"/>
		<path class="st1" d="M35.1,10.1c0,0.3,0,0.6,0,0.9c0,0.7-0.4,1.1-1.1,1.1c-0.2,0-0.4,0-0.7-0.1c-0.5-0.1-0.7-0.5-0.8-0.9
			c-0.1-0.7,0-1.4,0-2.1c0-0.1,0-0.1,0.1-0.1c0.2,0,0.4,0,0.7,0c0.1,0,0.1,0.1,0.1,0.2c0,0.5,0,1.1,0,1.6c0,0.1,0,0.3,0,0.4
			c0.1,0.2,0.2,0.3,0.5,0.3c0.2,0,0.4-0.1,0.4-0.4c0-0.2,0-0.3,0-0.5c0-0.5,0-1,0-1.5c0-0.1,0-0.1,0.1-0.1c0.2,0,0.3,0,0.5,0
			c0.1,0,0.2,0,0.2,0.2C35.1,9.4,35.1,9.8,35.1,10.1C35.1,10.1,35.1,10.1,35.1,10.1z"/>
		<path class="st1" d="M31.7,12.1c-0.3,0-0.6,0-0.9,0c-0.1,0-0.1,0-0.2-0.1c-0.2-0.4-0.4-0.7-0.7-1.1c-0.2,0.2-0.3,0.3-0.2,0.5
			c0,0.2,0,0.4,0,0.6c0,0.1,0,0.1-0.1,0.1c-0.2,0-0.4,0-0.6,0c-0.1,0-0.1,0-0.1-0.1c0-1,0-1.9,0-2.9c0-0.1,0-0.1,0.1-0.1
			c0.2,0,0.4,0,0.6,0c0.1,0,0.1,0,0.1,0.1c0,0.3,0,0.6,0,1c0.3-0.3,0.5-0.6,0.7-0.9c0.1-0.1,0.2-0.2,0.4-0.2c0.2,0,0.5,0,0.7,0
			c-0.2,0.3-0.4,0.5-0.6,0.7c-0.1,0.1-0.1,0.2-0.2,0.2c-0.2,0.3-0.2,0.3-0.1,0.5c0.3,0.5,0.6,1,0.9,1.4C31.6,11.9,31.6,12,31.7,12.1
			z"/>
		<path class="st1" d="M18.3,10.5c0-0.5,0-0.9,0-1.4c0-0.1,0-0.2,0.1-0.1c0.7,0,1.3,0,2,0c0.1,0,0.1,0,0.1,0.1c0,0.1,0,0.3,0,0.4
			c0,0.1,0,0.2-0.2,0.2c-0.4,0-0.7,0-1.1,0c-0.1,0-0.2,0-0.2,0.2c0,0.3,0,0.3,0.3,0.3c0.2,0,0.3,0,0.5,0c0.1,0,0.1,0,0.1,0.1
			c0,0.2,0.1,0.4,0,0.5c-0.1,0.1-0.3,0-0.5,0c-0.1,0-0.2,0-0.3,0c-0.1,0-0.2,0-0.2,0.2c0,0.4,0,0.4,0.4,0.4c0.3,0,0.6,0,0.9,0
			c0.1,0,0.1,0,0.1,0.1c0,0.1,0,0.3,0,0.4c0,0.1,0,0.1-0.1,0.1c-0.7,0-1.4,0-2,0c-0.1,0-0.1,0-0.1-0.1C18.3,11.4,18.3,11,18.3,10.5
			C18.3,10.5,18.3,10.5,18.3,10.5z"/>
		<path class="st1" d="M6.8,11.1c0-0.3,0-0.5,0-0.8c0-0.9,0-1.8,0-2.7c0-0.1,0-0.2,0.2-0.2c0.2,0,0.3,0,0.5,0c0.1,0,0.1,0,0.1,0.1
			c0,0.7,0,1.4,0,2.1c0,0.1,0,0.1,0.2,0.1C8.4,9.6,9,9.5,9.6,9.6c0.5,0.1,1,0.5,1,1.1c0,0.9,0,1.7,0,2.6c0,0.1,0,0.1-0.1,0.1
			c-0.2,0-0.5,0-0.7,0c-0.1,0-0.1-0.1-0.1-0.1c0-0.7,0-1.5,0-2.2c0-0.1,0-0.1,0-0.2c0-0.3-0.2-0.4-0.4-0.5c-0.3,0-0.7,0-1,0.1
			C7.8,10.6,7.4,10.8,7,11C6.9,11,6.9,11.1,6.8,11.1z"/>
		<path class="st1" d="M9.1,8.8C9.4,8.4,9.6,8,9.7,7.5c0-0.1,0.1-0.1,0.1-0.1c0.2,0,0.5,0,0.7,0c0.1,0,0.1,0,0.1,0.1
			C10.5,8,10.3,8.4,10,8.7c0,0.1-0.1,0.1-0.2,0.1C9.6,8.8,9.4,8.8,9.1,8.8z"/>
		<path class="st1" d="M6.8,11.7c0.3,0.3,0.6,0.5,0.9,0.8c0.1,0,0,0.1,0,0.1c-0.3,0.3-0.6,0.5-0.9,0.8C6.8,12.8,6.8,12.2,6.8,11.7z"
			/>
	</g>
</g>
</svg>
