<?xml version="1.0" encoding="utf-8"?>
<!-- Generator: Adobe Illustrator 25.2.3, SVG Export Plug-In . SVG Version: 6.00 Build 0)  -->
<svg version="1.1" id="Layer_1" xmlns="http://www.w3.org/2000/svg" xmlns:xlink="http://www.w3.org/1999/xlink" x="0px" y="0px"
	 viewBox="0 0 40 20" style="enable-background:new 0 0 40 20;" xml:space="preserve">
<style type="text/css">
	.st0{fill:#376D9A;}
	.st1{fill:#FFFFFF;}
	.st2{fill:#FFCE3B;}
</style>
<rect class="st0" width="40" height="20"/>
<g>
	<g>
		<path class="st1" d="M18.7,6.7c0.7,0,1.5,0,2.2,0c0,0,0,0,0.1,0c0,0,0.1,0,0.1-0.1c0-0.1,0-0.1,0-0.2c0-0.1,0-0.1-0.1-0.1
			c0,0,0,0-0.1,0c-1,0-2,0-3,0c-0.1,0-0.1,0-0.1-0.1c0-0.3,0-0.5,0-0.8c0-0.1,0-0.3,0-0.4c0.1-0.3,0.2-0.6,0.3-0.8
			c0.1-0.2,0.3-0.4,0.5-0.5c0.2-0.1,0.3-0.2,0.5-0.3c0.1,0,0.2-0.1,0.4-0.1c0.1,0,0.3,0,0.4,0c0.7,0,1.5,0,2.2,0c0.1,0,0.2,0,0.3,0
			c0.1,0,0.2,0,0.3,0.1c0.1,0,0.2,0.1,0.3,0.1c0.2,0.1,0.3,0.2,0.4,0.3c0.2,0.1,0.3,0.3,0.5,0.4c0.1,0.1,0.2,0.3,0.2,0.4
			c0.1,0.1,0.1,0.3,0.1,0.5c0,0.1,0,0.2,0,0.3c0,0.8,0,1.5,0,2.3c0,0.1,0,0.3-0.1,0.4c0,0.2-0.1,0.3-0.2,0.5
			c-0.1,0.3-0.3,0.5-0.5,0.7c-0.2,0.1-0.3,0.3-0.5,0.3c-0.1,0-0.2,0.1-0.3,0.1c-0.2,0-0.4,0.1-0.6,0.1c-0.7,0-1.4,0-2.1,0
			c-0.2,0-0.4,0-0.5,0.1c-0.1,0-0.3,0.1-0.4,0.1c-0.2,0.1-0.5,0.2-0.7,0.4c-0.2,0.1-0.3,0.3-0.5,0.5c-0.1,0.2-0.2,0.4-0.3,0.6
			c-0.1,0.1-0.1,0.3-0.1,0.4c0,0.1,0,0.2,0,0.3c0,0.3,0,0.6,0,1c0,0,0,0,0,0.1c0,0,0,0.1-0.1,0.1c-0.3,0-0.6,0-0.9,0
			c-0.1,0-0.2,0-0.3,0c-0.3,0-0.5-0.1-0.7-0.3c-0.2-0.1-0.4-0.3-0.5-0.4c-0.1-0.1-0.2-0.3-0.3-0.4c-0.1-0.1-0.1-0.2-0.2-0.3
			c0-0.1,0-0.1-0.1-0.2c0-0.1,0-0.2,0-0.3c0,0,0,0,0-0.1c0-0.2,0-0.3,0-0.5c0-0.6,0-1.2,0-1.9c0-0.1,0-0.3,0-0.4
			C14.5,8,14.7,7.6,15,7.3c0.2-0.2,0.4-0.3,0.6-0.4c0.2-0.1,0.3-0.1,0.5-0.2c0.1,0,0.2,0,0.3,0C17.2,6.7,17.9,6.7,18.7,6.7
			C18.7,6.7,18.7,6.7,18.7,6.7z M18.6,4.9c0,0.4,0.3,0.6,0.6,0.6c0.3,0,0.6-0.3,0.6-0.6c0-0.3-0.3-0.6-0.6-0.6
			C18.9,4.3,18.6,4.6,18.6,4.9z"/>
		<path class="st2" d="M23.5,13.3c-0.8,0-1.5,0-2.3,0c-0.1,0-0.1,0-0.1,0.1c0,0.1,0,0.1,0,0.2c0,0,0,0.1,0.1,0.1c0,0,0,0,0.1,0
			c1,0,2,0,3,0c0.1,0,0.1,0,0.1,0.1c0,0.3,0,0.5,0,0.8c0,0.2,0,0.3-0.1,0.5c0,0.2-0.1,0.4-0.2,0.5c-0.2,0.3-0.4,0.5-0.6,0.7
			c-0.2,0.1-0.4,0.2-0.6,0.3c-0.1,0-0.2,0-0.3,0.1c-0.1,0-0.2,0-0.3,0c-0.8,0-1.7,0-2.5,0c-0.1,0-0.2,0-0.3-0.1
			c-0.1,0-0.2-0.1-0.3-0.1c-0.2-0.1-0.4-0.2-0.6-0.4c-0.2-0.2-0.3-0.4-0.4-0.6c-0.1-0.1-0.1-0.2-0.1-0.4c0-0.1,0-0.1,0-0.2
			c0-0.1,0-0.2,0-0.3c0-0.1,0-0.3,0-0.4c0-0.7,0-1.3,0-2c0-0.1,0-0.2,0-0.4c0.1-0.3,0.2-0.6,0.3-0.8c0.2-0.2,0.4-0.4,0.6-0.6
			c0.2-0.1,0.3-0.2,0.5-0.3c0.1,0,0.2,0,0.3-0.1c0.1,0,0.3,0,0.4,0c0.8,0,1.5,0,2.3,0c0.1,0,0.3,0,0.4,0c0.1,0,0.1,0,0.2,0
			c0.1,0,0.1,0,0.2-0.1c0.1-0.1,0.3-0.1,0.4-0.2c0.2-0.1,0.5-0.3,0.7-0.5c0.1-0.2,0.3-0.3,0.4-0.5c0.1-0.1,0.1-0.3,0.2-0.4
			c0.1-0.2,0.1-0.5,0.1-0.7c0-0.2,0-0.5,0-0.7c0,0,0,0,0-0.1c0,0,0-0.1,0.1-0.1c0,0,0,0,0.1,0c0.2,0,0.4,0,0.7,0c0.2,0,0.3,0,0.5,0
			c0.1,0,0.1,0,0.2,0.1c0.1,0,0.2,0.1,0.4,0.1c0.1,0.1,0.2,0.1,0.3,0.2c0.2,0.1,0.3,0.2,0.4,0.4c0.1,0.1,0.2,0.3,0.3,0.5
			c0.1,0.1,0.1,0.3,0.1,0.4c0,0.2,0.1,0.3,0.1,0.5c0,0.7,0,1.5,0,2.2c0,0.1,0,0.3,0,0.4c0,0.1,0,0.2-0.1,0.3
			c-0.1,0.2-0.1,0.3-0.2,0.5c-0.1,0.2-0.3,0.4-0.5,0.5c-0.1,0.1-0.3,0.2-0.5,0.3c-0.1,0-0.2,0.1-0.3,0.1c-0.2,0-0.4,0.1-0.5,0.1
			C24.8,13.3,24.1,13.3,23.5,13.3z M22.3,15c0,0.3,0.3,0.6,0.6,0.6c0.3,0,0.6-0.3,0.6-0.6c0-0.4-0.3-0.6-0.6-0.6
			C22.6,14.4,22.3,14.7,22.3,15z"/>
	</g>
</g>
</svg>
