<?xml version="1.0" encoding="utf-8"?>
<!-- Generator: Adobe Illustrator 25.2.3, SVG Export Plug-In . SVG Version: 6.00 Build 0)  -->
<svg version="1.1" id="Layer_1" xmlns="http://www.w3.org/2000/svg" xmlns:xlink="http://www.w3.org/1999/xlink" x="0px" y="0px"
	 viewBox="0 0 40 20" style="enable-background:new 0 0 40 20;" xml:space="preserve">
<style type="text/css">
	.st0{fill:#42B783;}
	.st1{enable-background:new    ;}
	.st2{fill:#FFFFFF;}
	.st3{fill:#35495E;}
</style>
<rect class="st0" width="40" height="20"/>
<g class="st1">
	<path class="st2" d="M20.2,5.6v4.9c0,1.4-0.3,2.1-0.9,2.6c-0.6,0.6-1.3,0.9-2.3,0.9c-0.5,0-1.6-0.1-2.3-0.9
		c-0.7-0.8-0.8-1.4-0.8-2.6V5.6c0-0.1,0-0.1,0.1-0.1h1.9c0.1,0,0.1,0,0.1,0.1v4.9c0,0.3,0,0.6,0.1,0.9c0.1,0.3,0.5,0.5,0.9,0.5
		c0.4,0,0.8-0.1,0.9-0.4c0.1-0.3,0.1-0.7,0.1-1V5.6c0-0.1,0-0.1,0.1-0.1h1.9C20.1,5.5,20.2,5.6,20.2,5.6z"/>
	<path class="st2" d="M25.7,12.1l-0.2,1.7c0,0.1,0,0.1-0.1,0.1h-4.6c-0.1,0-0.1-0.1-0.1-0.1V5.6c0-0.1,0-0.1,0.1-0.1h4.6
		c0.1,0,0.1,0,0.1,0.1l0.2,1.7c0,0.1,0,0.1-0.1,0.1H23c-0.1,0-0.1,0-0.1,0.1v1c0,0.1,0,0.1,0.1,0.1h1.9c0.1,0,0.1,0,0.1,0.1v1.7
		c0,0.1,0,0.1-0.1,0.1H23c-0.1,0-0.1,0-0.1,0.1v1.2c0,0.1,0,0.1,0.1,0.1h2.6C25.6,12,25.7,12.1,25.7,12.1z"/>
</g>
<g class="st1">
	<path class="st2" d="M26.8,13.9v-1.2H28v1.2H26.8z"/>
</g>
<g class="st1">
	<path class="st2" d="M30.5,7.7v6.9c0,1.4-1.2,1.6-1.7,1.7c0,0-0.2,0-0.4,0c-0.3,0-0.6,0-0.8,0c-0.1,0-0.1-0.1-0.1-0.1l0.2-1.5
		c0-0.1,0-0.1,0.1-0.1H28c0.2,0,0.3,0,0.4-0.1c0.2-0.2,0.1-0.4,0.1-0.6l0,0l0-6c0-0.1,0-0.1,0.1-0.1h1.8C30.4,7.6,30.5,7.6,30.5,7.7
		z M30.5,5.7V7c0,0.1,0,0.1-0.1,0.1h-1.8c-0.1,0-0.1,0-0.1-0.1V5.7c0-0.1,0-0.1,0.1-0.1h1.8C30.4,5.6,30.5,5.6,30.5,5.7z"/>
	<path class="st2" d="M35.9,12c0,0.2-0.1,0.5-0.2,0.7c-0.4,0.8-1.3,1.3-2.4,1.3c-0.2,0-0.3,0-0.5,0c-0.5-0.1-0.9-0.2-1.3-0.4
		c-0.4-0.2-0.6-0.6-0.8-1c0-0.1,0-0.1,0.1-0.1l1.7-0.4c0,0,0.1,0,0.1,0c0.1,0.2,0.3,0.3,0.4,0.3c0.3,0,0.4,0,0.5-0.1
		c0.1-0.1,0.1-0.2,0.1-0.3c0-0.2-0.2-0.3-0.8-0.6l0,0c-0.1-0.1-0.3-0.1-0.5-0.2c-0.1-0.1-0.3-0.1-0.4-0.2l0,0c0,0,0,0-0.1,0
		c-0.6-0.3-1-0.8-1-1.3c-0.1-0.7,0.3-1.3,0.4-1.4c0.1-0.2,0.3-0.3,0.5-0.4c0.5-0.3,1.2-0.5,1.9-0.4c0.4,0,0.8,0.2,1.1,0.3
		C35,7.9,35.2,8,35.3,8.1c0.1,0.1,0.4,0.4,0.5,0.8c0,0.1,0,0.1-0.1,0.1L34,9.4c0,0-0.1,0-0.1-0.1c0-0.1-0.2-0.2-0.4-0.3
		c-0.2,0-0.3,0-0.4,0.1c-0.1,0.1-0.1,0.2-0.1,0.2c0,0.1,0.1,0.3,0.8,0.6c0.1,0,0.2,0.1,0.4,0.1c0.1,0.1,0.3,0.1,0.4,0.2h0
		C35,10.5,36,11,35.9,12z"/>
</g>
<g>
	<g>
		<path class="st2" d="M13.5,5.6L13.5,5.6L13.5,5.6c-0.1,0.1-0.1,0.2-0.2,0.3c-0.1,0.3-0.3,0.5-0.4,0.8c-0.1,0.2-0.2,0.4-0.4,0.6
			c-0.1,0.3-0.3,0.5-0.4,0.8c-0.1,0.2-0.2,0.4-0.4,0.6c-0.1,0.2-0.3,0.4-0.4,0.7C11.2,9.6,11.1,9.8,11,10c-0.1,0.2-0.2,0.4-0.4,0.6
			c-0.1,0.3-0.3,0.5-0.4,0.8c-0.1,0.2-0.2,0.4-0.4,0.6c-0.1,0.2-0.2,0.3-0.3,0.5C9.3,12.8,9.2,13,9,13.3c-0.1,0.2-0.2,0.4-0.3,0.6
			c0,0.1-0.1,0.2-0.1,0.3l0,0l0,0c-0.1-0.2-0.3-0.4-0.4-0.7c-0.1-0.5-0.2-0.8-0.4-1c-0.1-0.2-0.2-0.4-0.3-0.6
			c-0.1-0.2-0.2-0.3-0.3-0.5C7.1,11.2,7,11,6.9,10.8c-0.1-0.3-0.3-0.5-0.4-0.8C6.3,9.8,6.2,9.6,6,9.3S5.7,8.7,5.5,8.4
			C5.3,8.1,5.1,7.8,5,7.5C4.8,7.2,4.6,7,4.5,6.7C4.3,6.4,4.2,6.2,4,5.9c0-0.1-0.1-0.2-0.2-0.3l0,0l0,0l0,0l0,0c0.6,0,1.3,0,1.9,0
			l0,0c0,0.1,0.1,0.1,0.1,0.2C6,5.9,6.1,6.1,6.2,6.3c0.2,0.3,0.3,0.6,0.5,0.9C6.9,7.5,7,7.7,7.2,8s0.3,0.5,0.5,0.8
			C7.8,9,7.9,9.2,8,9.5c0.2,0.3,0.3,0.6,0.5,0.8c0,0.1,0.1,0.1,0.1,0.2l0,0l0,0l0,0c0-0.1,0.1-0.2,0.1-0.2C9,10,9.2,9.6,9.4,9.3
			C9.6,9,9.8,8.6,10,8.3s0.3-0.6,0.5-0.8c0.2-0.3,0.3-0.6,0.5-0.9s0.4-0.6,0.5-0.9c0,0,0-0.1,0.1-0.1C12.2,5.5,12.9,5.5,13.5,5.6
			C13.5,5.5,13.5,5.6,13.5,5.6z"/>
		<path class="st3" d="M11.6,5.5c0,0,0,0.1-0.1,0.1c-0.2,0.4-0.4,0.7-0.5,1c-0.2,0.3-0.3,0.6-0.5,0.9C10.3,7.7,10.1,8,10,8.3
			C9.8,8.6,9.6,9,9.4,9.3C9.2,9.6,9,10,8.8,10.3c0,0.1-0.1,0.2-0.1,0.2l0,0l0,0l0,0c0-0.1-0.1-0.1-0.1-0.2C8.4,10,8.2,9.7,8,9.5
			C7.9,9.2,7.8,9,7.7,8.8C7.5,8.5,7.3,8.3,7.2,8C7,7.7,6.9,7.5,6.7,7.2C6.6,6.9,6.4,6.6,6.2,6.3C6.1,6.1,6,5.9,5.9,5.8
			c0-0.1-0.1-0.1-0.1-0.2l0,0c0.6,0,1.2,0,1.8,0l0,0l0.1,0.1c0,0.1,0.1,0.3,0.2,0.4S8,6.4,8.1,6.5C8.2,6.7,8.3,6.8,8.4,7
			c0.1,0.1,0.2,0.3,0.2,0.4c0,0,0,0.1,0.1,0.1l0,0c0,0,0,0,0-0.1C8.8,7.2,8.9,7,9,6.9s0.1-0.2,0.2-0.4c0.1-0.1,0.2-0.3,0.2-0.4
			c0.1-0.2,0.2-0.4,0.3-0.5l0,0C10.4,5.5,11,5.5,11.6,5.5z"/>
	</g>
</g>
</svg>
